G04 #@! TF.GenerationSoftware,KiCad,Pcbnew,(5.1.2-1)-1*
G04 #@! TF.CreationDate,2019-05-31T22:43:23-07:00*
G04 #@! TF.ProjectId,NeatoLidarInterface,4e656174-6f4c-4696-9461-72496e746572,rev?*
G04 #@! TF.SameCoordinates,Original*
G04 #@! TF.FileFunction,Legend,Bot*
G04 #@! TF.FilePolarity,Positive*
%FSLAX46Y46*%
G04 Gerber Fmt 4.6, Leading zero omitted, Abs format (unit mm)*
G04 Created by KiCad (PCBNEW (5.1.2-1)-1) date 2019-05-31 22:43:23*
%MOMM*%
%LPD*%
G04 APERTURE LIST*
%ADD10C,0.150000*%
G04 APERTURE END LIST*
D10*
X201387380Y-3796309D02*
X202101666Y-3796309D01*
X202244523Y-3748690D01*
X202339761Y-3653452D01*
X202387380Y-3510595D01*
X202387380Y-3415357D01*
X202387380Y-4796309D02*
X202387380Y-4224880D01*
X202387380Y-4510595D02*
X201387380Y-4510595D01*
X201530238Y-4415357D01*
X201625476Y-4320119D01*
X201673095Y-4224880D01*
X202292142Y-5224880D02*
X202339761Y-5272500D01*
X202387380Y-5224880D01*
X202339761Y-5177261D01*
X202292142Y-5224880D01*
X202387380Y-5224880D01*
X201768333Y-5224880D02*
X201815952Y-5272500D01*
X201863571Y-5224880D01*
X201815952Y-5177261D01*
X201768333Y-5224880D01*
X201863571Y-5224880D01*
X202339761Y-6843928D02*
X202387380Y-6748690D01*
X202387380Y-6558214D01*
X202339761Y-6462976D01*
X202244523Y-6415357D01*
X201863571Y-6415357D01*
X201768333Y-6462976D01*
X201720714Y-6558214D01*
X201720714Y-6748690D01*
X201768333Y-6843928D01*
X201863571Y-6891547D01*
X201958809Y-6891547D01*
X202054047Y-6415357D01*
X202387380Y-7224880D02*
X201720714Y-7748690D01*
X201720714Y-7224880D02*
X202387380Y-7748690D01*
X201720714Y-7986785D02*
X201720714Y-8367738D01*
X201387380Y-8129642D02*
X202244523Y-8129642D01*
X202339761Y-8177261D01*
X202387380Y-8272500D01*
X202387380Y-8367738D01*
X202339761Y-9082023D02*
X202387380Y-8986785D01*
X202387380Y-8796309D01*
X202339761Y-8701071D01*
X202244523Y-8653452D01*
X201863571Y-8653452D01*
X201768333Y-8701071D01*
X201720714Y-8796309D01*
X201720714Y-8986785D01*
X201768333Y-9082023D01*
X201863571Y-9129642D01*
X201958809Y-9129642D01*
X202054047Y-8653452D01*
X202387380Y-9558214D02*
X201720714Y-9558214D01*
X201911190Y-9558214D02*
X201815952Y-9605833D01*
X201768333Y-9653452D01*
X201720714Y-9748690D01*
X201720714Y-9843928D01*
X201720714Y-10177261D02*
X202387380Y-10177261D01*
X201815952Y-10177261D02*
X201768333Y-10224880D01*
X201720714Y-10320119D01*
X201720714Y-10462976D01*
X201768333Y-10558214D01*
X201863571Y-10605833D01*
X202387380Y-10605833D01*
X202387380Y-11510595D02*
X201863571Y-11510595D01*
X201768333Y-11462976D01*
X201720714Y-11367738D01*
X201720714Y-11177261D01*
X201768333Y-11082023D01*
X202339761Y-11510595D02*
X202387380Y-11415357D01*
X202387380Y-11177261D01*
X202339761Y-11082023D01*
X202244523Y-11034404D01*
X202149285Y-11034404D01*
X202054047Y-11082023D01*
X202006428Y-11177261D01*
X202006428Y-11415357D01*
X201958809Y-11510595D01*
X202387380Y-12129642D02*
X202339761Y-12034404D01*
X202244523Y-11986785D01*
X201387380Y-11986785D01*
X201720714Y-13272499D02*
X202720714Y-13272499D01*
X201768333Y-13272499D02*
X201720714Y-13367738D01*
X201720714Y-13558214D01*
X201768333Y-13653452D01*
X201815952Y-13701071D01*
X201911190Y-13748690D01*
X202196904Y-13748690D01*
X202292142Y-13701071D01*
X202339761Y-13653452D01*
X202387380Y-13558214D01*
X202387380Y-13367738D01*
X202339761Y-13272499D01*
X202387380Y-14320119D02*
X202339761Y-14224880D01*
X202292142Y-14177261D01*
X202196904Y-14129642D01*
X201911190Y-14129642D01*
X201815952Y-14177261D01*
X201768333Y-14224880D01*
X201720714Y-14320119D01*
X201720714Y-14462976D01*
X201768333Y-14558214D01*
X201815952Y-14605833D01*
X201911190Y-14653452D01*
X202196904Y-14653452D01*
X202292142Y-14605833D01*
X202339761Y-14558214D01*
X202387380Y-14462976D01*
X202387380Y-14320119D01*
X201720714Y-14986785D02*
X202387380Y-15177261D01*
X201911190Y-15367738D01*
X202387380Y-15558214D01*
X201720714Y-15748690D01*
X202339761Y-16510595D02*
X202387380Y-16415357D01*
X202387380Y-16224880D01*
X202339761Y-16129642D01*
X202244523Y-16082023D01*
X201863571Y-16082023D01*
X201768333Y-16129642D01*
X201720714Y-16224880D01*
X201720714Y-16415357D01*
X201768333Y-16510595D01*
X201863571Y-16558214D01*
X201958809Y-16558214D01*
X202054047Y-16082023D01*
X202387380Y-16986785D02*
X201720714Y-16986785D01*
X201911190Y-16986785D02*
X201815952Y-17034404D01*
X201768333Y-17082023D01*
X201720714Y-17177261D01*
X201720714Y-17272499D01*
X201387380Y-18843928D02*
X201387380Y-18367738D01*
X201863571Y-18320119D01*
X201815952Y-18367738D01*
X201768333Y-18462976D01*
X201768333Y-18701071D01*
X201815952Y-18796309D01*
X201863571Y-18843928D01*
X201958809Y-18891547D01*
X202196904Y-18891547D01*
X202292142Y-18843928D01*
X202339761Y-18796309D01*
X202387380Y-18701071D01*
X202387380Y-18462976D01*
X202339761Y-18367738D01*
X202292142Y-18320119D01*
X201387380Y-19177261D02*
X202387380Y-19510595D01*
X201387380Y-19843928D01*
X203037380Y-3796309D02*
X203751666Y-3796309D01*
X203894523Y-3748690D01*
X203989761Y-3653452D01*
X204037380Y-3510595D01*
X204037380Y-3415357D01*
X203132619Y-4224880D02*
X203085000Y-4272500D01*
X203037380Y-4367738D01*
X203037380Y-4605833D01*
X203085000Y-4701071D01*
X203132619Y-4748690D01*
X203227857Y-4796309D01*
X203323095Y-4796309D01*
X203465952Y-4748690D01*
X204037380Y-4177261D01*
X204037380Y-4796309D01*
X203942142Y-5224880D02*
X203989761Y-5272500D01*
X204037380Y-5224880D01*
X203989761Y-5177261D01*
X203942142Y-5224880D01*
X204037380Y-5224880D01*
X203418333Y-5224880D02*
X203465952Y-5272500D01*
X203513571Y-5224880D01*
X203465952Y-5177261D01*
X203418333Y-5224880D01*
X203513571Y-5224880D01*
X204037380Y-6605833D02*
X203989761Y-6510595D01*
X203894523Y-6462976D01*
X203037380Y-6462976D01*
X204037380Y-6986785D02*
X203370714Y-6986785D01*
X203037380Y-6986785D02*
X203085000Y-6939166D01*
X203132619Y-6986785D01*
X203085000Y-7034404D01*
X203037380Y-6986785D01*
X203132619Y-6986785D01*
X204037380Y-7891547D02*
X203037380Y-7891547D01*
X203989761Y-7891547D02*
X204037380Y-7796309D01*
X204037380Y-7605833D01*
X203989761Y-7510595D01*
X203942142Y-7462976D01*
X203846904Y-7415357D01*
X203561190Y-7415357D01*
X203465952Y-7462976D01*
X203418333Y-7510595D01*
X203370714Y-7605833D01*
X203370714Y-7796309D01*
X203418333Y-7891547D01*
X204037380Y-8796309D02*
X203513571Y-8796309D01*
X203418333Y-8748690D01*
X203370714Y-8653452D01*
X203370714Y-8462976D01*
X203418333Y-8367738D01*
X203989761Y-8796309D02*
X204037380Y-8701071D01*
X204037380Y-8462976D01*
X203989761Y-8367738D01*
X203894523Y-8320119D01*
X203799285Y-8320119D01*
X203704047Y-8367738D01*
X203656428Y-8462976D01*
X203656428Y-8701071D01*
X203608809Y-8796309D01*
X204037380Y-9272500D02*
X203370714Y-9272500D01*
X203561190Y-9272500D02*
X203465952Y-9320119D01*
X203418333Y-9367738D01*
X203370714Y-9462976D01*
X203370714Y-9558214D01*
X204037380Y-10796309D02*
X203989761Y-10701071D01*
X203894523Y-10653452D01*
X203037380Y-10653452D01*
X204037380Y-11320119D02*
X203989761Y-11224880D01*
X203942142Y-11177261D01*
X203846904Y-11129642D01*
X203561190Y-11129642D01*
X203465952Y-11177261D01*
X203418333Y-11224880D01*
X203370714Y-11320119D01*
X203370714Y-11462976D01*
X203418333Y-11558214D01*
X203465952Y-11605833D01*
X203561190Y-11653452D01*
X203846904Y-11653452D01*
X203942142Y-11605833D01*
X203989761Y-11558214D01*
X204037380Y-11462976D01*
X204037380Y-11320119D01*
X203370714Y-12510595D02*
X204180238Y-12510595D01*
X204275476Y-12462976D01*
X204323095Y-12415357D01*
X204370714Y-12320119D01*
X204370714Y-12177261D01*
X204323095Y-12082023D01*
X203989761Y-12510595D02*
X204037380Y-12415357D01*
X204037380Y-12224880D01*
X203989761Y-12129642D01*
X203942142Y-12082023D01*
X203846904Y-12034404D01*
X203561190Y-12034404D01*
X203465952Y-12082023D01*
X203418333Y-12129642D01*
X203370714Y-12224880D01*
X203370714Y-12415357D01*
X203418333Y-12510595D01*
X204037380Y-12986785D02*
X203370714Y-12986785D01*
X203037380Y-12986785D02*
X203085000Y-12939166D01*
X203132619Y-12986785D01*
X203085000Y-13034404D01*
X203037380Y-12986785D01*
X203132619Y-12986785D01*
X203989761Y-13891547D02*
X204037380Y-13796309D01*
X204037380Y-13605833D01*
X203989761Y-13510595D01*
X203942142Y-13462976D01*
X203846904Y-13415357D01*
X203561190Y-13415357D01*
X203465952Y-13462976D01*
X203418333Y-13510595D01*
X203370714Y-13605833D01*
X203370714Y-13796309D01*
X203418333Y-13891547D01*
X204037380Y-15510595D02*
X203513571Y-15510595D01*
X203418333Y-15462976D01*
X203370714Y-15367738D01*
X203370714Y-15177261D01*
X203418333Y-15082023D01*
X203989761Y-15510595D02*
X204037380Y-15415357D01*
X204037380Y-15177261D01*
X203989761Y-15082023D01*
X203894523Y-15034404D01*
X203799285Y-15034404D01*
X203704047Y-15082023D01*
X203656428Y-15177261D01*
X203656428Y-15415357D01*
X203608809Y-15510595D01*
X203370714Y-15986785D02*
X204037380Y-15986785D01*
X203465952Y-15986785D02*
X203418333Y-16034404D01*
X203370714Y-16129642D01*
X203370714Y-16272500D01*
X203418333Y-16367738D01*
X203513571Y-16415357D01*
X204037380Y-16415357D01*
X204037380Y-17320119D02*
X203037380Y-17320119D01*
X203989761Y-17320119D02*
X204037380Y-17224880D01*
X204037380Y-17034404D01*
X203989761Y-16939166D01*
X203942142Y-16891547D01*
X203846904Y-16843928D01*
X203561190Y-16843928D01*
X203465952Y-16891547D01*
X203418333Y-16939166D01*
X203370714Y-17034404D01*
X203370714Y-17224880D01*
X203418333Y-17320119D01*
X203370714Y-18558214D02*
X204370714Y-18558214D01*
X203418333Y-18558214D02*
X203370714Y-18653452D01*
X203370714Y-18843928D01*
X203418333Y-18939166D01*
X203465952Y-18986785D01*
X203561190Y-19034404D01*
X203846904Y-19034404D01*
X203942142Y-18986785D01*
X203989761Y-18939166D01*
X204037380Y-18843928D01*
X204037380Y-18653452D01*
X203989761Y-18558214D01*
X204037380Y-19605833D02*
X203989761Y-19510595D01*
X203942142Y-19462976D01*
X203846904Y-19415357D01*
X203561190Y-19415357D01*
X203465952Y-19462976D01*
X203418333Y-19510595D01*
X203370714Y-19605833D01*
X203370714Y-19748690D01*
X203418333Y-19843928D01*
X203465952Y-19891547D01*
X203561190Y-19939166D01*
X203846904Y-19939166D01*
X203942142Y-19891547D01*
X203989761Y-19843928D01*
X204037380Y-19748690D01*
X204037380Y-19605833D01*
X203370714Y-20272500D02*
X204037380Y-20462976D01*
X203561190Y-20653452D01*
X204037380Y-20843928D01*
X203370714Y-21034404D01*
X203989761Y-21796309D02*
X204037380Y-21701071D01*
X204037380Y-21510595D01*
X203989761Y-21415357D01*
X203894523Y-21367738D01*
X203513571Y-21367738D01*
X203418333Y-21415357D01*
X203370714Y-21510595D01*
X203370714Y-21701071D01*
X203418333Y-21796309D01*
X203513571Y-21843928D01*
X203608809Y-21843928D01*
X203704047Y-21367738D01*
X204037380Y-22272500D02*
X203370714Y-22272500D01*
X203561190Y-22272500D02*
X203465952Y-22320119D01*
X203418333Y-22367738D01*
X203370714Y-22462976D01*
X203370714Y-22558214D01*
X204687380Y-3796309D02*
X205401666Y-3796309D01*
X205544523Y-3748690D01*
X205639761Y-3653452D01*
X205687380Y-3510595D01*
X205687380Y-3415357D01*
X204687380Y-4177261D02*
X204687380Y-4796309D01*
X205068333Y-4462976D01*
X205068333Y-4605833D01*
X205115952Y-4701071D01*
X205163571Y-4748690D01*
X205258809Y-4796309D01*
X205496904Y-4796309D01*
X205592142Y-4748690D01*
X205639761Y-4701071D01*
X205687380Y-4605833D01*
X205687380Y-4320119D01*
X205639761Y-4224880D01*
X205592142Y-4177261D01*
X205592142Y-5224880D02*
X205639761Y-5272500D01*
X205687380Y-5224880D01*
X205639761Y-5177261D01*
X205592142Y-5224880D01*
X205687380Y-5224880D01*
X205068333Y-5224880D02*
X205115952Y-5272500D01*
X205163571Y-5224880D01*
X205115952Y-5177261D01*
X205068333Y-5224880D01*
X205163571Y-5224880D01*
X205687380Y-6605833D02*
X205639761Y-6510595D01*
X205544523Y-6462976D01*
X204687380Y-6462976D01*
X205687380Y-6986785D02*
X205020714Y-6986785D01*
X204687380Y-6986785D02*
X204735000Y-6939166D01*
X204782619Y-6986785D01*
X204735000Y-7034404D01*
X204687380Y-6986785D01*
X204782619Y-6986785D01*
X205687380Y-7891547D02*
X204687380Y-7891547D01*
X205639761Y-7891547D02*
X205687380Y-7796309D01*
X205687380Y-7605833D01*
X205639761Y-7510595D01*
X205592142Y-7462976D01*
X205496904Y-7415357D01*
X205211190Y-7415357D01*
X205115952Y-7462976D01*
X205068333Y-7510595D01*
X205020714Y-7605833D01*
X205020714Y-7796309D01*
X205068333Y-7891547D01*
X205687380Y-8796309D02*
X205163571Y-8796309D01*
X205068333Y-8748690D01*
X205020714Y-8653452D01*
X205020714Y-8462976D01*
X205068333Y-8367738D01*
X205639761Y-8796309D02*
X205687380Y-8701071D01*
X205687380Y-8462976D01*
X205639761Y-8367738D01*
X205544523Y-8320119D01*
X205449285Y-8320119D01*
X205354047Y-8367738D01*
X205306428Y-8462976D01*
X205306428Y-8701071D01*
X205258809Y-8796309D01*
X205687380Y-9272500D02*
X205020714Y-9272500D01*
X205211190Y-9272500D02*
X205115952Y-9320119D01*
X205068333Y-9367738D01*
X205020714Y-9462976D01*
X205020714Y-9558214D01*
X205687380Y-10653452D02*
X205020714Y-10653452D01*
X205115952Y-10653452D02*
X205068333Y-10701071D01*
X205020714Y-10796309D01*
X205020714Y-10939166D01*
X205068333Y-11034404D01*
X205163571Y-11082023D01*
X205687380Y-11082023D01*
X205163571Y-11082023D02*
X205068333Y-11129642D01*
X205020714Y-11224880D01*
X205020714Y-11367738D01*
X205068333Y-11462976D01*
X205163571Y-11510595D01*
X205687380Y-11510595D01*
X205687380Y-12129642D02*
X205639761Y-12034404D01*
X205592142Y-11986785D01*
X205496904Y-11939166D01*
X205211190Y-11939166D01*
X205115952Y-11986785D01*
X205068333Y-12034404D01*
X205020714Y-12129642D01*
X205020714Y-12272500D01*
X205068333Y-12367738D01*
X205115952Y-12415357D01*
X205211190Y-12462976D01*
X205496904Y-12462976D01*
X205592142Y-12415357D01*
X205639761Y-12367738D01*
X205687380Y-12272500D01*
X205687380Y-12129642D01*
X205020714Y-12748690D02*
X205020714Y-13129642D01*
X204687380Y-12891547D02*
X205544523Y-12891547D01*
X205639761Y-12939166D01*
X205687380Y-13034404D01*
X205687380Y-13129642D01*
X205687380Y-13605833D02*
X205639761Y-13510595D01*
X205592142Y-13462976D01*
X205496904Y-13415357D01*
X205211190Y-13415357D01*
X205115952Y-13462976D01*
X205068333Y-13510595D01*
X205020714Y-13605833D01*
X205020714Y-13748690D01*
X205068333Y-13843928D01*
X205115952Y-13891547D01*
X205211190Y-13939166D01*
X205496904Y-13939166D01*
X205592142Y-13891547D01*
X205639761Y-13843928D01*
X205687380Y-13748690D01*
X205687380Y-13605833D01*
X205687380Y-14367738D02*
X205020714Y-14367738D01*
X205211190Y-14367738D02*
X205115952Y-14415357D01*
X205068333Y-14462976D01*
X205020714Y-14558214D01*
X205020714Y-14653452D01*
X206337380Y-3796309D02*
X207051666Y-3796309D01*
X207194523Y-3748690D01*
X207289761Y-3653452D01*
X207337380Y-3510595D01*
X207337380Y-3415357D01*
X206670714Y-4701071D02*
X207337380Y-4701071D01*
X206289761Y-4462976D02*
X207004047Y-4224880D01*
X207004047Y-4843928D01*
X207242142Y-5224880D02*
X207289761Y-5272500D01*
X207337380Y-5224880D01*
X207289761Y-5177261D01*
X207242142Y-5224880D01*
X207337380Y-5224880D01*
X206718333Y-5224880D02*
X206765952Y-5272500D01*
X206813571Y-5224880D01*
X206765952Y-5177261D01*
X206718333Y-5224880D01*
X206813571Y-5224880D01*
X207289761Y-6891547D02*
X207337380Y-6796309D01*
X207337380Y-6605833D01*
X207289761Y-6510595D01*
X207242142Y-6462976D01*
X207146904Y-6415357D01*
X206861190Y-6415357D01*
X206765952Y-6462976D01*
X206718333Y-6510595D01*
X206670714Y-6605833D01*
X206670714Y-6796309D01*
X206718333Y-6891547D01*
X207337380Y-7462976D02*
X207289761Y-7367738D01*
X207194523Y-7320119D01*
X206337380Y-7320119D01*
X207337380Y-7986785D02*
X207289761Y-7891547D01*
X207242142Y-7843928D01*
X207146904Y-7796309D01*
X206861190Y-7796309D01*
X206765952Y-7843928D01*
X206718333Y-7891547D01*
X206670714Y-7986785D01*
X206670714Y-8129642D01*
X206718333Y-8224880D01*
X206765952Y-8272500D01*
X206861190Y-8320119D01*
X207146904Y-8320119D01*
X207242142Y-8272500D01*
X207289761Y-8224880D01*
X207337380Y-8129642D01*
X207337380Y-7986785D01*
X207289761Y-8701071D02*
X207337380Y-8796309D01*
X207337380Y-8986785D01*
X207289761Y-9082023D01*
X207194523Y-9129642D01*
X207146904Y-9129642D01*
X207051666Y-9082023D01*
X207004047Y-8986785D01*
X207004047Y-8843928D01*
X206956428Y-8748690D01*
X206861190Y-8701071D01*
X206813571Y-8701071D01*
X206718333Y-8748690D01*
X206670714Y-8843928D01*
X206670714Y-8986785D01*
X206718333Y-9082023D01*
X207289761Y-9939166D02*
X207337380Y-9843928D01*
X207337380Y-9653452D01*
X207289761Y-9558214D01*
X207194523Y-9510595D01*
X206813571Y-9510595D01*
X206718333Y-9558214D01*
X206670714Y-9653452D01*
X206670714Y-9843928D01*
X206718333Y-9939166D01*
X206813571Y-9986785D01*
X206908809Y-9986785D01*
X207004047Y-9510595D01*
X207337380Y-10843928D02*
X206337380Y-10843928D01*
X207289761Y-10843928D02*
X207337380Y-10748690D01*
X207337380Y-10558214D01*
X207289761Y-10462976D01*
X207242142Y-10415357D01*
X207146904Y-10367738D01*
X206861190Y-10367738D01*
X206765952Y-10415357D01*
X206718333Y-10462976D01*
X206670714Y-10558214D01*
X206670714Y-10748690D01*
X206718333Y-10843928D01*
X206956428Y-12082023D02*
X206956428Y-12843928D01*
X206670714Y-13939166D02*
X206670714Y-14320119D01*
X207337380Y-14082023D02*
X206480238Y-14082023D01*
X206385000Y-14129642D01*
X206337380Y-14224880D01*
X206337380Y-14320119D01*
X207337380Y-14796309D02*
X207289761Y-14701071D01*
X207242142Y-14653452D01*
X207146904Y-14605833D01*
X206861190Y-14605833D01*
X206765952Y-14653452D01*
X206718333Y-14701071D01*
X206670714Y-14796309D01*
X206670714Y-14939166D01*
X206718333Y-15034404D01*
X206765952Y-15082023D01*
X206861190Y-15129642D01*
X207146904Y-15129642D01*
X207242142Y-15082023D01*
X207289761Y-15034404D01*
X207337380Y-14939166D01*
X207337380Y-14796309D01*
X207337380Y-15558214D02*
X206670714Y-15558214D01*
X206861190Y-15558214D02*
X206765952Y-15605833D01*
X206718333Y-15653452D01*
X206670714Y-15748690D01*
X206670714Y-15843928D01*
X207337380Y-16939166D02*
X206337380Y-16939166D01*
X206718333Y-16939166D02*
X206670714Y-17034404D01*
X206670714Y-17224880D01*
X206718333Y-17320119D01*
X206765952Y-17367738D01*
X206861190Y-17415357D01*
X207146904Y-17415357D01*
X207242142Y-17367738D01*
X207289761Y-17320119D01*
X207337380Y-17224880D01*
X207337380Y-17034404D01*
X207289761Y-16939166D01*
X207337380Y-17986785D02*
X207289761Y-17891547D01*
X207242142Y-17843928D01*
X207146904Y-17796309D01*
X206861190Y-17796309D01*
X206765952Y-17843928D01*
X206718333Y-17891547D01*
X206670714Y-17986785D01*
X206670714Y-18129642D01*
X206718333Y-18224880D01*
X206765952Y-18272500D01*
X206861190Y-18320119D01*
X207146904Y-18320119D01*
X207242142Y-18272500D01*
X207289761Y-18224880D01*
X207337380Y-18129642D01*
X207337380Y-17986785D01*
X206670714Y-18605833D02*
X206670714Y-18986785D01*
X206337380Y-18748690D02*
X207194523Y-18748690D01*
X207289761Y-18796309D01*
X207337380Y-18891547D01*
X207337380Y-18986785D01*
X206670714Y-19224880D02*
X207337380Y-19462976D01*
X206670714Y-19701071D01*
X207337380Y-20510595D02*
X206813571Y-20510595D01*
X206718333Y-20462976D01*
X206670714Y-20367738D01*
X206670714Y-20177261D01*
X206718333Y-20082023D01*
X207289761Y-20510595D02*
X207337380Y-20415357D01*
X207337380Y-20177261D01*
X207289761Y-20082023D01*
X207194523Y-20034404D01*
X207099285Y-20034404D01*
X207004047Y-20082023D01*
X206956428Y-20177261D01*
X206956428Y-20415357D01*
X206908809Y-20510595D01*
X207289761Y-21415357D02*
X207337380Y-21320119D01*
X207337380Y-21129642D01*
X207289761Y-21034404D01*
X207242142Y-20986785D01*
X207146904Y-20939166D01*
X206861190Y-20939166D01*
X206765952Y-20986785D01*
X206718333Y-21034404D01*
X206670714Y-21129642D01*
X206670714Y-21320119D01*
X206718333Y-21415357D01*
X207289761Y-21891547D02*
X207337380Y-21891547D01*
X207432619Y-21843928D01*
X207480238Y-21796309D01*
X207337380Y-23653452D02*
X206861190Y-23320119D01*
X207337380Y-23082023D02*
X206337380Y-23082023D01*
X206337380Y-23462976D01*
X206385000Y-23558214D01*
X206432619Y-23605833D01*
X206527857Y-23653452D01*
X206670714Y-23653452D01*
X206765952Y-23605833D01*
X206813571Y-23558214D01*
X206861190Y-23462976D01*
X206861190Y-23082023D01*
X207337380Y-23986785D02*
X206670714Y-24510595D01*
X206670714Y-23986785D02*
X207337380Y-24510595D01*
X207718333Y-25939166D02*
X207670714Y-25891547D01*
X207527857Y-25796309D01*
X207432619Y-25748690D01*
X207289761Y-25701071D01*
X207051666Y-25653452D01*
X206861190Y-25653452D01*
X206623095Y-25701071D01*
X206480238Y-25748690D01*
X206385000Y-25796309D01*
X206242142Y-25891547D01*
X206194523Y-25939166D01*
X206813571Y-26653452D02*
X206861190Y-26796309D01*
X206908809Y-26843928D01*
X207004047Y-26891547D01*
X207146904Y-26891547D01*
X207242142Y-26843928D01*
X207289761Y-26796309D01*
X207337380Y-26701071D01*
X207337380Y-26320119D01*
X206337380Y-26320119D01*
X206337380Y-26653452D01*
X206385000Y-26748690D01*
X206432619Y-26796309D01*
X206527857Y-26843928D01*
X206623095Y-26843928D01*
X206718333Y-26796309D01*
X206765952Y-26748690D01*
X206813571Y-26653452D01*
X206813571Y-26320119D01*
X207337380Y-27891547D02*
X206861190Y-27558214D01*
X207337380Y-27320119D02*
X206337380Y-27320119D01*
X206337380Y-27701071D01*
X206385000Y-27796309D01*
X206432619Y-27843928D01*
X206527857Y-27891547D01*
X206670714Y-27891547D01*
X206765952Y-27843928D01*
X206813571Y-27796309D01*
X206861190Y-27701071D01*
X206861190Y-27320119D01*
X207337380Y-28320119D02*
X206337380Y-28320119D01*
X207337380Y-28891547D01*
X206337380Y-28891547D01*
X207718333Y-29272499D02*
X207670714Y-29320119D01*
X207527857Y-29415357D01*
X207432619Y-29462976D01*
X207289761Y-29510595D01*
X207051666Y-29558214D01*
X206861190Y-29558214D01*
X206623095Y-29510595D01*
X206480238Y-29462976D01*
X206385000Y-29415357D01*
X206242142Y-29320119D01*
X206194523Y-29272499D01*
X206670714Y-30653452D02*
X206670714Y-31034404D01*
X206337380Y-30796309D02*
X207194523Y-30796309D01*
X207289761Y-30843928D01*
X207337380Y-30939166D01*
X207337380Y-31034404D01*
X207337380Y-31367738D02*
X206670714Y-31367738D01*
X206337380Y-31367738D02*
X206385000Y-31320119D01*
X206432619Y-31367738D01*
X206385000Y-31415357D01*
X206337380Y-31367738D01*
X206432619Y-31367738D01*
X207289761Y-32224880D02*
X207337380Y-32129642D01*
X207337380Y-31939166D01*
X207289761Y-31843928D01*
X207194523Y-31796309D01*
X206813571Y-31796309D01*
X206718333Y-31843928D01*
X206670714Y-31939166D01*
X206670714Y-32129642D01*
X206718333Y-32224880D01*
X206813571Y-32272499D01*
X206908809Y-32272499D01*
X207004047Y-31796309D01*
X207337380Y-33129642D02*
X206337380Y-33129642D01*
X207289761Y-33129642D02*
X207337380Y-33034404D01*
X207337380Y-32843928D01*
X207289761Y-32748690D01*
X207242142Y-32701071D01*
X207146904Y-32653452D01*
X206861190Y-32653452D01*
X206765952Y-32701071D01*
X206718333Y-32748690D01*
X206670714Y-32843928D01*
X206670714Y-33034404D01*
X206718333Y-33129642D01*
X206670714Y-34224880D02*
X206670714Y-34605833D01*
X206337380Y-34367738D02*
X207194523Y-34367738D01*
X207289761Y-34415357D01*
X207337380Y-34510595D01*
X207337380Y-34605833D01*
X207337380Y-35082023D02*
X207289761Y-34986785D01*
X207242142Y-34939166D01*
X207146904Y-34891547D01*
X206861190Y-34891547D01*
X206765952Y-34939166D01*
X206718333Y-34986785D01*
X206670714Y-35082023D01*
X206670714Y-35224880D01*
X206718333Y-35320119D01*
X206765952Y-35367738D01*
X206861190Y-35415357D01*
X207146904Y-35415357D01*
X207242142Y-35367738D01*
X207289761Y-35320119D01*
X207337380Y-35224880D01*
X207337380Y-35082023D01*
X206337380Y-36510595D02*
X206337380Y-37129642D01*
X206718333Y-36796309D01*
X206718333Y-36939166D01*
X206765952Y-37034404D01*
X206813571Y-37082023D01*
X206908809Y-37129642D01*
X207146904Y-37129642D01*
X207242142Y-37082023D01*
X207289761Y-37034404D01*
X207337380Y-36939166D01*
X207337380Y-36653452D01*
X207289761Y-36558214D01*
X207242142Y-36510595D01*
X206670714Y-37462976D02*
X207337380Y-37701071D01*
X206670714Y-37939166D01*
X206337380Y-38224880D02*
X206337380Y-38843928D01*
X206718333Y-38510595D01*
X206718333Y-38653452D01*
X206765952Y-38748690D01*
X206813571Y-38796309D01*
X206908809Y-38843928D01*
X207146904Y-38843928D01*
X207242142Y-38796309D01*
X207289761Y-38748690D01*
X207337380Y-38653452D01*
X207337380Y-38367738D01*
X207289761Y-38272499D01*
X207242142Y-38224880D01*
X208987380Y-6701071D02*
X208939761Y-6605833D01*
X208892142Y-6558214D01*
X208796904Y-6510595D01*
X208511190Y-6510595D01*
X208415952Y-6558214D01*
X208368333Y-6605833D01*
X208320714Y-6701071D01*
X208320714Y-6843928D01*
X208368333Y-6939166D01*
X208415952Y-6986785D01*
X208511190Y-7034404D01*
X208796904Y-7034404D01*
X208892142Y-6986785D01*
X208939761Y-6939166D01*
X208987380Y-6843928D01*
X208987380Y-6701071D01*
X208320714Y-7462976D02*
X209320714Y-7462976D01*
X208368333Y-7462976D02*
X208320714Y-7558214D01*
X208320714Y-7748690D01*
X208368333Y-7843928D01*
X208415952Y-7891547D01*
X208511190Y-7939166D01*
X208796904Y-7939166D01*
X208892142Y-7891547D01*
X208939761Y-7843928D01*
X208987380Y-7748690D01*
X208987380Y-7558214D01*
X208939761Y-7462976D01*
X208939761Y-8748690D02*
X208987380Y-8653452D01*
X208987380Y-8462976D01*
X208939761Y-8367738D01*
X208844523Y-8320119D01*
X208463571Y-8320119D01*
X208368333Y-8367738D01*
X208320714Y-8462976D01*
X208320714Y-8653452D01*
X208368333Y-8748690D01*
X208463571Y-8796309D01*
X208558809Y-8796309D01*
X208654047Y-8320119D01*
X208320714Y-9224880D02*
X208987380Y-9224880D01*
X208415952Y-9224880D02*
X208368333Y-9272500D01*
X208320714Y-9367738D01*
X208320714Y-9510595D01*
X208368333Y-9605833D01*
X208463571Y-9653452D01*
X208987380Y-9653452D01*
X208606428Y-10891547D02*
X208606428Y-11653452D01*
X208320714Y-12748690D02*
X208320714Y-13129642D01*
X208987380Y-12891547D02*
X208130238Y-12891547D01*
X208035000Y-12939166D01*
X207987380Y-13034404D01*
X207987380Y-13129642D01*
X208987380Y-13605833D02*
X208939761Y-13510595D01*
X208892142Y-13462976D01*
X208796904Y-13415357D01*
X208511190Y-13415357D01*
X208415952Y-13462976D01*
X208368333Y-13510595D01*
X208320714Y-13605833D01*
X208320714Y-13748690D01*
X208368333Y-13843928D01*
X208415952Y-13891547D01*
X208511190Y-13939166D01*
X208796904Y-13939166D01*
X208892142Y-13891547D01*
X208939761Y-13843928D01*
X208987380Y-13748690D01*
X208987380Y-13605833D01*
X208987380Y-14367738D02*
X208320714Y-14367738D01*
X208511190Y-14367738D02*
X208415952Y-14415357D01*
X208368333Y-14462976D01*
X208320714Y-14558214D01*
X208320714Y-14653452D01*
X207987380Y-15653452D02*
X208987380Y-16320119D01*
X207987380Y-16320119D02*
X208987380Y-15653452D01*
X207987380Y-16558214D02*
X208987380Y-16891547D01*
X207987380Y-17224880D01*
X208606428Y-17558214D02*
X208606428Y-18320119D01*
X208987380Y-19320119D02*
X208987380Y-18748690D01*
X208987380Y-19034404D02*
X207987380Y-19034404D01*
X208130238Y-18939166D01*
X208225476Y-18843928D01*
X208273095Y-18748690D01*
X208987380Y-20272499D02*
X208987380Y-19701071D01*
X208987380Y-19986785D02*
X207987380Y-19986785D01*
X208130238Y-19891547D01*
X208225476Y-19796309D01*
X208273095Y-19701071D01*
X208987380Y-22034404D02*
X208511190Y-21701071D01*
X208987380Y-21462976D02*
X207987380Y-21462976D01*
X207987380Y-21843928D01*
X208035000Y-21939166D01*
X208082619Y-21986785D01*
X208177857Y-22034404D01*
X208320714Y-22034404D01*
X208415952Y-21986785D01*
X208463571Y-21939166D01*
X208511190Y-21843928D01*
X208511190Y-21462976D01*
X208987380Y-22367738D02*
X208320714Y-22891547D01*
X208320714Y-22367738D02*
X208987380Y-22891547D01*
X209368333Y-24320119D02*
X209320714Y-24272499D01*
X209177857Y-24177261D01*
X209082619Y-24129642D01*
X208939761Y-24082023D01*
X208701666Y-24034404D01*
X208511190Y-24034404D01*
X208273095Y-24082023D01*
X208130238Y-24129642D01*
X208035000Y-24177261D01*
X207892142Y-24272499D01*
X207844523Y-24320119D01*
X208463571Y-25034404D02*
X208511190Y-25177261D01*
X208558809Y-25224880D01*
X208654047Y-25272499D01*
X208796904Y-25272499D01*
X208892142Y-25224880D01*
X208939761Y-25177261D01*
X208987380Y-25082023D01*
X208987380Y-24701071D01*
X207987380Y-24701071D01*
X207987380Y-25034404D01*
X208035000Y-25129642D01*
X208082619Y-25177261D01*
X208177857Y-25224880D01*
X208273095Y-25224880D01*
X208368333Y-25177261D01*
X208415952Y-25129642D01*
X208463571Y-25034404D01*
X208463571Y-24701071D01*
X208987380Y-26272499D02*
X208511190Y-25939166D01*
X208987380Y-25701071D02*
X207987380Y-25701071D01*
X207987380Y-26082023D01*
X208035000Y-26177261D01*
X208082619Y-26224880D01*
X208177857Y-26272499D01*
X208320714Y-26272499D01*
X208415952Y-26224880D01*
X208463571Y-26177261D01*
X208511190Y-26082023D01*
X208511190Y-25701071D01*
X208987380Y-26701071D02*
X207987380Y-26701071D01*
X208987380Y-27272499D01*
X207987380Y-27272499D01*
X209368333Y-27653452D02*
X209320714Y-27701071D01*
X209177857Y-27796309D01*
X209082619Y-27843928D01*
X208939761Y-27891547D01*
X208701666Y-27939166D01*
X208511190Y-27939166D01*
X208273095Y-27891547D01*
X208130238Y-27843928D01*
X208035000Y-27796309D01*
X207892142Y-27701071D01*
X207844523Y-27653452D01*
X208320714Y-29034404D02*
X208320714Y-29415357D01*
X208987380Y-29177261D02*
X208130238Y-29177261D01*
X208035000Y-29224880D01*
X207987380Y-29320119D01*
X207987380Y-29415357D01*
X208987380Y-29891547D02*
X208939761Y-29796309D01*
X208844523Y-29748690D01*
X207987380Y-29748690D01*
X208987380Y-30415357D02*
X208939761Y-30320119D01*
X208892142Y-30272499D01*
X208796904Y-30224880D01*
X208511190Y-30224880D01*
X208415952Y-30272499D01*
X208368333Y-30320119D01*
X208320714Y-30415357D01*
X208320714Y-30558214D01*
X208368333Y-30653452D01*
X208415952Y-30701071D01*
X208511190Y-30748690D01*
X208796904Y-30748690D01*
X208892142Y-30701071D01*
X208939761Y-30653452D01*
X208987380Y-30558214D01*
X208987380Y-30415357D01*
X208987380Y-31605833D02*
X208463571Y-31605833D01*
X208368333Y-31558214D01*
X208320714Y-31462976D01*
X208320714Y-31272499D01*
X208368333Y-31177261D01*
X208939761Y-31605833D02*
X208987380Y-31510595D01*
X208987380Y-31272499D01*
X208939761Y-31177261D01*
X208844523Y-31129642D01*
X208749285Y-31129642D01*
X208654047Y-31177261D01*
X208606428Y-31272499D01*
X208606428Y-31510595D01*
X208558809Y-31605833D01*
X208320714Y-31939166D02*
X208320714Y-32320119D01*
X207987380Y-32082023D02*
X208844523Y-32082023D01*
X208939761Y-32129642D01*
X208987380Y-32224880D01*
X208987380Y-32320119D01*
X208939761Y-32605833D02*
X208987380Y-32701071D01*
X208987380Y-32891547D01*
X208939761Y-32986785D01*
X208844523Y-33034404D01*
X208796904Y-33034404D01*
X208701666Y-32986785D01*
X208654047Y-32891547D01*
X208654047Y-32748690D01*
X208606428Y-32653452D01*
X208511190Y-32605833D01*
X208463571Y-32605833D01*
X208368333Y-32653452D01*
X208320714Y-32748690D01*
X208320714Y-32891547D01*
X208368333Y-32986785D01*
X209637380Y-3796309D02*
X210351666Y-3796309D01*
X210494523Y-3748690D01*
X210589761Y-3653452D01*
X210637380Y-3510595D01*
X210637380Y-3415357D01*
X209637380Y-4748690D02*
X209637380Y-4272500D01*
X210113571Y-4224880D01*
X210065952Y-4272500D01*
X210018333Y-4367738D01*
X210018333Y-4605833D01*
X210065952Y-4701071D01*
X210113571Y-4748690D01*
X210208809Y-4796309D01*
X210446904Y-4796309D01*
X210542142Y-4748690D01*
X210589761Y-4701071D01*
X210637380Y-4605833D01*
X210637380Y-4367738D01*
X210589761Y-4272500D01*
X210542142Y-4224880D01*
X210542142Y-5224880D02*
X210589761Y-5272500D01*
X210637380Y-5224880D01*
X210589761Y-5177261D01*
X210542142Y-5224880D01*
X210637380Y-5224880D01*
X210018333Y-5224880D02*
X210065952Y-5272500D01*
X210113571Y-5224880D01*
X210065952Y-5177261D01*
X210018333Y-5224880D01*
X210113571Y-5224880D01*
X210589761Y-6891547D02*
X210637380Y-6796309D01*
X210637380Y-6605833D01*
X210589761Y-6510595D01*
X210542142Y-6462976D01*
X210446904Y-6415357D01*
X210161190Y-6415357D01*
X210065952Y-6462976D01*
X210018333Y-6510595D01*
X209970714Y-6605833D01*
X209970714Y-6796309D01*
X210018333Y-6891547D01*
X210637380Y-7462976D02*
X210589761Y-7367738D01*
X210494523Y-7320119D01*
X209637380Y-7320119D01*
X210637380Y-7986785D02*
X210589761Y-7891547D01*
X210542142Y-7843928D01*
X210446904Y-7796309D01*
X210161190Y-7796309D01*
X210065952Y-7843928D01*
X210018333Y-7891547D01*
X209970714Y-7986785D01*
X209970714Y-8129642D01*
X210018333Y-8224880D01*
X210065952Y-8272500D01*
X210161190Y-8320119D01*
X210446904Y-8320119D01*
X210542142Y-8272500D01*
X210589761Y-8224880D01*
X210637380Y-8129642D01*
X210637380Y-7986785D01*
X210589761Y-8701071D02*
X210637380Y-8796309D01*
X210637380Y-8986785D01*
X210589761Y-9082023D01*
X210494523Y-9129642D01*
X210446904Y-9129642D01*
X210351666Y-9082023D01*
X210304047Y-8986785D01*
X210304047Y-8843928D01*
X210256428Y-8748690D01*
X210161190Y-8701071D01*
X210113571Y-8701071D01*
X210018333Y-8748690D01*
X209970714Y-8843928D01*
X209970714Y-8986785D01*
X210018333Y-9082023D01*
X210589761Y-9939166D02*
X210637380Y-9843928D01*
X210637380Y-9653452D01*
X210589761Y-9558214D01*
X210494523Y-9510595D01*
X210113571Y-9510595D01*
X210018333Y-9558214D01*
X209970714Y-9653452D01*
X209970714Y-9843928D01*
X210018333Y-9939166D01*
X210113571Y-9986785D01*
X210208809Y-9986785D01*
X210304047Y-9510595D01*
X210637380Y-10843928D02*
X209637380Y-10843928D01*
X210589761Y-10843928D02*
X210637380Y-10748690D01*
X210637380Y-10558214D01*
X210589761Y-10462976D01*
X210542142Y-10415357D01*
X210446904Y-10367738D01*
X210161190Y-10367738D01*
X210065952Y-10415357D01*
X210018333Y-10462976D01*
X209970714Y-10558214D01*
X209970714Y-10748690D01*
X210018333Y-10843928D01*
X210256428Y-12082023D02*
X210256428Y-12843928D01*
X210637380Y-14224880D02*
X210589761Y-14129642D01*
X210494523Y-14082023D01*
X209637380Y-14082023D01*
X210637380Y-14605833D02*
X209970714Y-14605833D01*
X209637380Y-14605833D02*
X209685000Y-14558214D01*
X209732619Y-14605833D01*
X209685000Y-14653452D01*
X209637380Y-14605833D01*
X209732619Y-14605833D01*
X210637380Y-15510595D02*
X209637380Y-15510595D01*
X210589761Y-15510595D02*
X210637380Y-15415357D01*
X210637380Y-15224880D01*
X210589761Y-15129642D01*
X210542142Y-15082023D01*
X210446904Y-15034404D01*
X210161190Y-15034404D01*
X210065952Y-15082023D01*
X210018333Y-15129642D01*
X209970714Y-15224880D01*
X209970714Y-15415357D01*
X210018333Y-15510595D01*
X210637380Y-16415357D02*
X210113571Y-16415357D01*
X210018333Y-16367738D01*
X209970714Y-16272500D01*
X209970714Y-16082023D01*
X210018333Y-15986785D01*
X210589761Y-16415357D02*
X210637380Y-16320119D01*
X210637380Y-16082023D01*
X210589761Y-15986785D01*
X210494523Y-15939166D01*
X210399285Y-15939166D01*
X210304047Y-15986785D01*
X210256428Y-16082023D01*
X210256428Y-16320119D01*
X210208809Y-16415357D01*
X210637380Y-16891547D02*
X209970714Y-16891547D01*
X210161190Y-16891547D02*
X210065952Y-16939166D01*
X210018333Y-16986785D01*
X209970714Y-17082023D01*
X209970714Y-17177261D01*
X210637380Y-18272500D02*
X209970714Y-18272500D01*
X209637380Y-18272500D02*
X209685000Y-18224880D01*
X209732619Y-18272500D01*
X209685000Y-18320119D01*
X209637380Y-18272500D01*
X209732619Y-18272500D01*
X210589761Y-18701071D02*
X210637380Y-18796309D01*
X210637380Y-18986785D01*
X210589761Y-19082023D01*
X210494523Y-19129642D01*
X210446904Y-19129642D01*
X210351666Y-19082023D01*
X210304047Y-18986785D01*
X210304047Y-18843928D01*
X210256428Y-18748690D01*
X210161190Y-18701071D01*
X210113571Y-18701071D01*
X210018333Y-18748690D01*
X209970714Y-18843928D01*
X209970714Y-18986785D01*
X210018333Y-19082023D01*
X209970714Y-20320119D02*
X210970714Y-20320119D01*
X210018333Y-20320119D02*
X209970714Y-20415357D01*
X209970714Y-20605833D01*
X210018333Y-20701071D01*
X210065952Y-20748690D01*
X210161190Y-20796309D01*
X210446904Y-20796309D01*
X210542142Y-20748690D01*
X210589761Y-20701071D01*
X210637380Y-20605833D01*
X210637380Y-20415357D01*
X210589761Y-20320119D01*
X210637380Y-21367738D02*
X210589761Y-21272500D01*
X210542142Y-21224880D01*
X210446904Y-21177261D01*
X210161190Y-21177261D01*
X210065952Y-21224880D01*
X210018333Y-21272500D01*
X209970714Y-21367738D01*
X209970714Y-21510595D01*
X210018333Y-21605833D01*
X210065952Y-21653452D01*
X210161190Y-21701071D01*
X210446904Y-21701071D01*
X210542142Y-21653452D01*
X210589761Y-21605833D01*
X210637380Y-21510595D01*
X210637380Y-21367738D01*
X209970714Y-22034404D02*
X210637380Y-22224880D01*
X210161190Y-22415357D01*
X210637380Y-22605833D01*
X209970714Y-22796309D01*
X210589761Y-23558214D02*
X210637380Y-23462976D01*
X210637380Y-23272500D01*
X210589761Y-23177261D01*
X210494523Y-23129642D01*
X210113571Y-23129642D01*
X210018333Y-23177261D01*
X209970714Y-23272500D01*
X209970714Y-23462976D01*
X210018333Y-23558214D01*
X210113571Y-23605833D01*
X210208809Y-23605833D01*
X210304047Y-23129642D01*
X210637380Y-24034404D02*
X209970714Y-24034404D01*
X210161190Y-24034404D02*
X210065952Y-24082023D01*
X210018333Y-24129642D01*
X209970714Y-24224880D01*
X209970714Y-24320119D01*
X210589761Y-25034404D02*
X210637380Y-24939166D01*
X210637380Y-24748690D01*
X210589761Y-24653452D01*
X210494523Y-24605833D01*
X210113571Y-24605833D01*
X210018333Y-24653452D01*
X209970714Y-24748690D01*
X209970714Y-24939166D01*
X210018333Y-25034404D01*
X210113571Y-25082023D01*
X210208809Y-25082023D01*
X210304047Y-24605833D01*
X210637380Y-25939166D02*
X209637380Y-25939166D01*
X210589761Y-25939166D02*
X210637380Y-25843928D01*
X210637380Y-25653452D01*
X210589761Y-25558214D01*
X210542142Y-25510595D01*
X210446904Y-25462976D01*
X210161190Y-25462976D01*
X210065952Y-25510595D01*
X210018333Y-25558214D01*
X209970714Y-25653452D01*
X209970714Y-25843928D01*
X210018333Y-25939166D01*
X209970714Y-27034404D02*
X209970714Y-27415357D01*
X210637380Y-27177261D02*
X209780238Y-27177261D01*
X209685000Y-27224880D01*
X209637380Y-27320119D01*
X209637380Y-27415357D01*
X210637380Y-27748690D02*
X209970714Y-27748690D01*
X210161190Y-27748690D02*
X210065952Y-27796309D01*
X210018333Y-27843928D01*
X209970714Y-27939166D01*
X209970714Y-28034404D01*
X210637380Y-28510595D02*
X210589761Y-28415357D01*
X210542142Y-28367738D01*
X210446904Y-28320119D01*
X210161190Y-28320119D01*
X210065952Y-28367738D01*
X210018333Y-28415357D01*
X209970714Y-28510595D01*
X209970714Y-28653452D01*
X210018333Y-28748690D01*
X210065952Y-28796309D01*
X210161190Y-28843928D01*
X210446904Y-28843928D01*
X210542142Y-28796309D01*
X210589761Y-28748690D01*
X210637380Y-28653452D01*
X210637380Y-28510595D01*
X210637380Y-29272500D02*
X209970714Y-29272500D01*
X210065952Y-29272500D02*
X210018333Y-29320119D01*
X209970714Y-29415357D01*
X209970714Y-29558214D01*
X210018333Y-29653452D01*
X210113571Y-29701071D01*
X210637380Y-29701071D01*
X210113571Y-29701071D02*
X210018333Y-29748690D01*
X209970714Y-29843928D01*
X209970714Y-29986785D01*
X210018333Y-30082023D01*
X210113571Y-30129642D01*
X210637380Y-30129642D01*
X209637380Y-31367738D02*
X210446904Y-31367738D01*
X210542142Y-31415357D01*
X210589761Y-31462976D01*
X210637380Y-31558214D01*
X210637380Y-31748690D01*
X210589761Y-31843928D01*
X210542142Y-31891547D01*
X210446904Y-31939166D01*
X209637380Y-31939166D01*
X210589761Y-32367738D02*
X210637380Y-32510595D01*
X210637380Y-32748690D01*
X210589761Y-32843928D01*
X210542142Y-32891547D01*
X210446904Y-32939166D01*
X210351666Y-32939166D01*
X210256428Y-32891547D01*
X210208809Y-32843928D01*
X210161190Y-32748690D01*
X210113571Y-32558214D01*
X210065952Y-32462976D01*
X210018333Y-32415357D01*
X209923095Y-32367738D01*
X209827857Y-32367738D01*
X209732619Y-32415357D01*
X209685000Y-32462976D01*
X209637380Y-32558214D01*
X209637380Y-32796309D01*
X209685000Y-32939166D01*
X210113571Y-33701071D02*
X210161190Y-33843928D01*
X210208809Y-33891547D01*
X210304047Y-33939166D01*
X210446904Y-33939166D01*
X210542142Y-33891547D01*
X210589761Y-33843928D01*
X210637380Y-33748690D01*
X210637380Y-33367738D01*
X209637380Y-33367738D01*
X209637380Y-33701071D01*
X209685000Y-33796309D01*
X209732619Y-33843928D01*
X209827857Y-33891547D01*
X209923095Y-33891547D01*
X210018333Y-33843928D01*
X210065952Y-33796309D01*
X210113571Y-33701071D01*
X210113571Y-33367738D01*
X212287380Y-6701071D02*
X212239761Y-6605833D01*
X212192142Y-6558214D01*
X212096904Y-6510595D01*
X211811190Y-6510595D01*
X211715952Y-6558214D01*
X211668333Y-6605833D01*
X211620714Y-6701071D01*
X211620714Y-6843928D01*
X211668333Y-6939166D01*
X211715952Y-6986785D01*
X211811190Y-7034404D01*
X212096904Y-7034404D01*
X212192142Y-6986785D01*
X212239761Y-6939166D01*
X212287380Y-6843928D01*
X212287380Y-6701071D01*
X211620714Y-7462976D02*
X212620714Y-7462976D01*
X211668333Y-7462976D02*
X211620714Y-7558214D01*
X211620714Y-7748690D01*
X211668333Y-7843928D01*
X211715952Y-7891547D01*
X211811190Y-7939166D01*
X212096904Y-7939166D01*
X212192142Y-7891547D01*
X212239761Y-7843928D01*
X212287380Y-7748690D01*
X212287380Y-7558214D01*
X212239761Y-7462976D01*
X212239761Y-8748690D02*
X212287380Y-8653452D01*
X212287380Y-8462976D01*
X212239761Y-8367738D01*
X212144523Y-8320119D01*
X211763571Y-8320119D01*
X211668333Y-8367738D01*
X211620714Y-8462976D01*
X211620714Y-8653452D01*
X211668333Y-8748690D01*
X211763571Y-8796309D01*
X211858809Y-8796309D01*
X211954047Y-8320119D01*
X211620714Y-9224880D02*
X212287380Y-9224880D01*
X211715952Y-9224880D02*
X211668333Y-9272500D01*
X211620714Y-9367738D01*
X211620714Y-9510595D01*
X211668333Y-9605833D01*
X211763571Y-9653452D01*
X212287380Y-9653452D01*
X211906428Y-10891547D02*
X211906428Y-11653452D01*
X212287380Y-13034404D02*
X212239761Y-12939166D01*
X212144523Y-12891547D01*
X211287380Y-12891547D01*
X212287380Y-13415357D02*
X211620714Y-13415357D01*
X211287380Y-13415357D02*
X211335000Y-13367738D01*
X211382619Y-13415357D01*
X211335000Y-13462976D01*
X211287380Y-13415357D01*
X211382619Y-13415357D01*
X212287380Y-14320119D02*
X211287380Y-14320119D01*
X212239761Y-14320119D02*
X212287380Y-14224880D01*
X212287380Y-14034404D01*
X212239761Y-13939166D01*
X212192142Y-13891547D01*
X212096904Y-13843928D01*
X211811190Y-13843928D01*
X211715952Y-13891547D01*
X211668333Y-13939166D01*
X211620714Y-14034404D01*
X211620714Y-14224880D01*
X211668333Y-14320119D01*
X212287380Y-15224880D02*
X211763571Y-15224880D01*
X211668333Y-15177261D01*
X211620714Y-15082023D01*
X211620714Y-14891547D01*
X211668333Y-14796309D01*
X212239761Y-15224880D02*
X212287380Y-15129642D01*
X212287380Y-14891547D01*
X212239761Y-14796309D01*
X212144523Y-14748690D01*
X212049285Y-14748690D01*
X211954047Y-14796309D01*
X211906428Y-14891547D01*
X211906428Y-15129642D01*
X211858809Y-15224880D01*
X212287380Y-15701071D02*
X211620714Y-15701071D01*
X211811190Y-15701071D02*
X211715952Y-15748690D01*
X211668333Y-15796309D01*
X211620714Y-15891547D01*
X211620714Y-15986785D01*
X212287380Y-17082023D02*
X211620714Y-17082023D01*
X211287380Y-17082023D02*
X211335000Y-17034404D01*
X211382619Y-17082023D01*
X211335000Y-17129642D01*
X211287380Y-17082023D01*
X211382619Y-17082023D01*
X212239761Y-17510595D02*
X212287380Y-17605833D01*
X212287380Y-17796309D01*
X212239761Y-17891547D01*
X212144523Y-17939166D01*
X212096904Y-17939166D01*
X212001666Y-17891547D01*
X211954047Y-17796309D01*
X211954047Y-17653452D01*
X211906428Y-17558214D01*
X211811190Y-17510595D01*
X211763571Y-17510595D01*
X211668333Y-17558214D01*
X211620714Y-17653452D01*
X211620714Y-17796309D01*
X211668333Y-17891547D01*
X211620714Y-19129642D02*
X212620714Y-19129642D01*
X211668333Y-19129642D02*
X211620714Y-19224880D01*
X211620714Y-19415357D01*
X211668333Y-19510595D01*
X211715952Y-19558214D01*
X211811190Y-19605833D01*
X212096904Y-19605833D01*
X212192142Y-19558214D01*
X212239761Y-19510595D01*
X212287380Y-19415357D01*
X212287380Y-19224880D01*
X212239761Y-19129642D01*
X212287380Y-20177261D02*
X212239761Y-20082023D01*
X212192142Y-20034404D01*
X212096904Y-19986785D01*
X211811190Y-19986785D01*
X211715952Y-20034404D01*
X211668333Y-20082023D01*
X211620714Y-20177261D01*
X211620714Y-20320119D01*
X211668333Y-20415357D01*
X211715952Y-20462976D01*
X211811190Y-20510595D01*
X212096904Y-20510595D01*
X212192142Y-20462976D01*
X212239761Y-20415357D01*
X212287380Y-20320119D01*
X212287380Y-20177261D01*
X211620714Y-20843928D02*
X212287380Y-21034404D01*
X211811190Y-21224880D01*
X212287380Y-21415357D01*
X211620714Y-21605833D01*
X212239761Y-22367738D02*
X212287380Y-22272500D01*
X212287380Y-22082023D01*
X212239761Y-21986785D01*
X212144523Y-21939166D01*
X211763571Y-21939166D01*
X211668333Y-21986785D01*
X211620714Y-22082023D01*
X211620714Y-22272500D01*
X211668333Y-22367738D01*
X211763571Y-22415357D01*
X211858809Y-22415357D01*
X211954047Y-21939166D01*
X212287380Y-22843928D02*
X211620714Y-22843928D01*
X211811190Y-22843928D02*
X211715952Y-22891547D01*
X211668333Y-22939166D01*
X211620714Y-23034404D01*
X211620714Y-23129642D01*
X212239761Y-23843928D02*
X212287380Y-23748690D01*
X212287380Y-23558214D01*
X212239761Y-23462976D01*
X212144523Y-23415357D01*
X211763571Y-23415357D01*
X211668333Y-23462976D01*
X211620714Y-23558214D01*
X211620714Y-23748690D01*
X211668333Y-23843928D01*
X211763571Y-23891547D01*
X211858809Y-23891547D01*
X211954047Y-23415357D01*
X212287380Y-24748690D02*
X211287380Y-24748690D01*
X212239761Y-24748690D02*
X212287380Y-24653452D01*
X212287380Y-24462976D01*
X212239761Y-24367738D01*
X212192142Y-24320119D01*
X212096904Y-24272500D01*
X211811190Y-24272500D01*
X211715952Y-24320119D01*
X211668333Y-24367738D01*
X211620714Y-24462976D01*
X211620714Y-24653452D01*
X211668333Y-24748690D01*
X211620714Y-25843928D02*
X211620714Y-26224880D01*
X212287380Y-25986785D02*
X211430238Y-25986785D01*
X211335000Y-26034404D01*
X211287380Y-26129642D01*
X211287380Y-26224880D01*
X212287380Y-26558214D02*
X211620714Y-26558214D01*
X211811190Y-26558214D02*
X211715952Y-26605833D01*
X211668333Y-26653452D01*
X211620714Y-26748690D01*
X211620714Y-26843928D01*
X212287380Y-27320119D02*
X212239761Y-27224880D01*
X212192142Y-27177261D01*
X212096904Y-27129642D01*
X211811190Y-27129642D01*
X211715952Y-27177261D01*
X211668333Y-27224880D01*
X211620714Y-27320119D01*
X211620714Y-27462976D01*
X211668333Y-27558214D01*
X211715952Y-27605833D01*
X211811190Y-27653452D01*
X212096904Y-27653452D01*
X212192142Y-27605833D01*
X212239761Y-27558214D01*
X212287380Y-27462976D01*
X212287380Y-27320119D01*
X212287380Y-28082023D02*
X211620714Y-28082023D01*
X211715952Y-28082023D02*
X211668333Y-28129642D01*
X211620714Y-28224880D01*
X211620714Y-28367738D01*
X211668333Y-28462976D01*
X211763571Y-28510595D01*
X212287380Y-28510595D01*
X211763571Y-28510595D02*
X211668333Y-28558214D01*
X211620714Y-28653452D01*
X211620714Y-28796309D01*
X211668333Y-28891547D01*
X211763571Y-28939166D01*
X212287380Y-28939166D01*
X211287380Y-30462976D02*
X212001666Y-30462976D01*
X212144523Y-30415357D01*
X212239761Y-30320119D01*
X212287380Y-30177261D01*
X212287380Y-30082023D01*
X212287380Y-31462976D02*
X212287380Y-30891547D01*
X212287380Y-31177261D02*
X211287380Y-31177261D01*
X211430238Y-31082023D01*
X211525476Y-30986785D01*
X211573095Y-30891547D01*
X216237380Y-3701071D02*
X216237380Y-3891547D01*
X216285000Y-3986785D01*
X216380238Y-4082023D01*
X216570714Y-4129642D01*
X216904047Y-4129642D01*
X217094523Y-4082023D01*
X217189761Y-3986785D01*
X217237380Y-3891547D01*
X217237380Y-3701071D01*
X217189761Y-3605833D01*
X217094523Y-3510595D01*
X216904047Y-3462976D01*
X216570714Y-3462976D01*
X216380238Y-3510595D01*
X216285000Y-3605833D01*
X216237380Y-3701071D01*
X216570714Y-4558214D02*
X217570714Y-4558214D01*
X216618333Y-4558214D02*
X216570714Y-4653452D01*
X216570714Y-4843928D01*
X216618333Y-4939166D01*
X216665952Y-4986785D01*
X216761190Y-5034404D01*
X217046904Y-5034404D01*
X217142142Y-4986785D01*
X217189761Y-4939166D01*
X217237380Y-4843928D01*
X217237380Y-4653452D01*
X217189761Y-4558214D01*
X217189761Y-5843928D02*
X217237380Y-5748690D01*
X217237380Y-5558214D01*
X217189761Y-5462976D01*
X217094523Y-5415357D01*
X216713571Y-5415357D01*
X216618333Y-5462976D01*
X216570714Y-5558214D01*
X216570714Y-5748690D01*
X216618333Y-5843928D01*
X216713571Y-5891547D01*
X216808809Y-5891547D01*
X216904047Y-5415357D01*
X216570714Y-6320119D02*
X217237380Y-6320119D01*
X216665952Y-6320119D02*
X216618333Y-6367738D01*
X216570714Y-6462976D01*
X216570714Y-6605833D01*
X216618333Y-6701071D01*
X216713571Y-6748690D01*
X217237380Y-6748690D01*
X217189761Y-7939166D02*
X217237380Y-8034404D01*
X217237380Y-8224880D01*
X217189761Y-8320119D01*
X217094523Y-8367738D01*
X217046904Y-8367738D01*
X216951666Y-8320119D01*
X216904047Y-8224880D01*
X216904047Y-8082023D01*
X216856428Y-7986785D01*
X216761190Y-7939166D01*
X216713571Y-7939166D01*
X216618333Y-7986785D01*
X216570714Y-8082023D01*
X216570714Y-8224880D01*
X216618333Y-8320119D01*
X217237380Y-8939166D02*
X217189761Y-8843928D01*
X217142142Y-8796309D01*
X217046904Y-8748690D01*
X216761190Y-8748690D01*
X216665952Y-8796309D01*
X216618333Y-8843928D01*
X216570714Y-8939166D01*
X216570714Y-9082023D01*
X216618333Y-9177261D01*
X216665952Y-9224880D01*
X216761190Y-9272500D01*
X217046904Y-9272500D01*
X217142142Y-9224880D01*
X217189761Y-9177261D01*
X217237380Y-9082023D01*
X217237380Y-8939166D01*
X216570714Y-10129642D02*
X217237380Y-10129642D01*
X216570714Y-9701071D02*
X217094523Y-9701071D01*
X217189761Y-9748690D01*
X217237380Y-9843928D01*
X217237380Y-9986785D01*
X217189761Y-10082023D01*
X217142142Y-10129642D01*
X217237380Y-10605833D02*
X216570714Y-10605833D01*
X216761190Y-10605833D02*
X216665952Y-10653452D01*
X216618333Y-10701071D01*
X216570714Y-10796309D01*
X216570714Y-10891547D01*
X217189761Y-11653452D02*
X217237380Y-11558214D01*
X217237380Y-11367738D01*
X217189761Y-11272500D01*
X217142142Y-11224880D01*
X217046904Y-11177261D01*
X216761190Y-11177261D01*
X216665952Y-11224880D01*
X216618333Y-11272500D01*
X216570714Y-11367738D01*
X216570714Y-11558214D01*
X216618333Y-11653452D01*
X217189761Y-12462976D02*
X217237380Y-12367738D01*
X217237380Y-12177261D01*
X217189761Y-12082023D01*
X217094523Y-12034404D01*
X216713571Y-12034404D01*
X216618333Y-12082023D01*
X216570714Y-12177261D01*
X216570714Y-12367738D01*
X216618333Y-12462976D01*
X216713571Y-12510595D01*
X216808809Y-12510595D01*
X216904047Y-12034404D01*
X217237380Y-14129642D02*
X216237380Y-14129642D01*
X217189761Y-14129642D02*
X217237380Y-14034404D01*
X217237380Y-13843928D01*
X217189761Y-13748690D01*
X217142142Y-13701071D01*
X217046904Y-13653452D01*
X216761190Y-13653452D01*
X216665952Y-13701071D01*
X216618333Y-13748690D01*
X216570714Y-13843928D01*
X216570714Y-14034404D01*
X216618333Y-14129642D01*
X217189761Y-14986785D02*
X217237380Y-14891547D01*
X217237380Y-14701071D01*
X217189761Y-14605833D01*
X217094523Y-14558214D01*
X216713571Y-14558214D01*
X216618333Y-14605833D01*
X216570714Y-14701071D01*
X216570714Y-14891547D01*
X216618333Y-14986785D01*
X216713571Y-15034404D01*
X216808809Y-15034404D01*
X216904047Y-14558214D01*
X217189761Y-15415357D02*
X217237380Y-15510595D01*
X217237380Y-15701071D01*
X217189761Y-15796309D01*
X217094523Y-15843928D01*
X217046904Y-15843928D01*
X216951666Y-15796309D01*
X216904047Y-15701071D01*
X216904047Y-15558214D01*
X216856428Y-15462976D01*
X216761190Y-15415357D01*
X216713571Y-15415357D01*
X216618333Y-15462976D01*
X216570714Y-15558214D01*
X216570714Y-15701071D01*
X216618333Y-15796309D01*
X217237380Y-16272500D02*
X216570714Y-16272500D01*
X216237380Y-16272500D02*
X216285000Y-16224880D01*
X216332619Y-16272500D01*
X216285000Y-16320119D01*
X216237380Y-16272500D01*
X216332619Y-16272500D01*
X216570714Y-17177261D02*
X217380238Y-17177261D01*
X217475476Y-17129642D01*
X217523095Y-17082023D01*
X217570714Y-16986785D01*
X217570714Y-16843928D01*
X217523095Y-16748690D01*
X217189761Y-17177261D02*
X217237380Y-17082023D01*
X217237380Y-16891547D01*
X217189761Y-16796309D01*
X217142142Y-16748690D01*
X217046904Y-16701071D01*
X216761190Y-16701071D01*
X216665952Y-16748690D01*
X216618333Y-16796309D01*
X216570714Y-16891547D01*
X216570714Y-17082023D01*
X216618333Y-17177261D01*
X216570714Y-17653452D02*
X217237380Y-17653452D01*
X216665952Y-17653452D02*
X216618333Y-17701071D01*
X216570714Y-17796309D01*
X216570714Y-17939166D01*
X216618333Y-18034404D01*
X216713571Y-18082023D01*
X217237380Y-18082023D01*
X217237380Y-19320119D02*
X216237380Y-19320119D01*
X216618333Y-19320119D02*
X216570714Y-19415357D01*
X216570714Y-19605833D01*
X216618333Y-19701071D01*
X216665952Y-19748690D01*
X216761190Y-19796309D01*
X217046904Y-19796309D01*
X217142142Y-19748690D01*
X217189761Y-19701071D01*
X217237380Y-19605833D01*
X217237380Y-19415357D01*
X217189761Y-19320119D01*
X216570714Y-20129642D02*
X217237380Y-20367738D01*
X216570714Y-20605833D02*
X217237380Y-20367738D01*
X217475476Y-20272500D01*
X217523095Y-20224880D01*
X217570714Y-20129642D01*
X217142142Y-22320119D02*
X217189761Y-22272500D01*
X217237380Y-22129642D01*
X217237380Y-22034404D01*
X217189761Y-21891547D01*
X217094523Y-21796309D01*
X216999285Y-21748690D01*
X216808809Y-21701071D01*
X216665952Y-21701071D01*
X216475476Y-21748690D01*
X216380238Y-21796309D01*
X216285000Y-21891547D01*
X216237380Y-22034404D01*
X216237380Y-22129642D01*
X216285000Y-22272500D01*
X216332619Y-22320119D01*
X217142142Y-22748690D02*
X217189761Y-22796309D01*
X217237380Y-22748690D01*
X217189761Y-22701071D01*
X217142142Y-22748690D01*
X217237380Y-22748690D01*
X216951666Y-23939166D02*
X216951666Y-24415357D01*
X217237380Y-23843928D02*
X216237380Y-24177261D01*
X217237380Y-24510595D01*
X217237380Y-24986785D02*
X217189761Y-24891547D01*
X217094523Y-24843928D01*
X216237380Y-24843928D01*
X217237380Y-25367738D02*
X216237380Y-25367738D01*
X216618333Y-25367738D02*
X216570714Y-25462976D01*
X216570714Y-25653452D01*
X216618333Y-25748690D01*
X216665952Y-25796309D01*
X216761190Y-25843928D01*
X217046904Y-25843928D01*
X217142142Y-25796309D01*
X217189761Y-25748690D01*
X217237380Y-25653452D01*
X217237380Y-25462976D01*
X217189761Y-25367738D01*
X217189761Y-26653452D02*
X217237380Y-26558214D01*
X217237380Y-26367738D01*
X217189761Y-26272500D01*
X217094523Y-26224880D01*
X216713571Y-26224880D01*
X216618333Y-26272500D01*
X216570714Y-26367738D01*
X216570714Y-26558214D01*
X216618333Y-26653452D01*
X216713571Y-26701071D01*
X216808809Y-26701071D01*
X216904047Y-26224880D01*
X217237380Y-27129642D02*
X216570714Y-27129642D01*
X216761190Y-27129642D02*
X216665952Y-27177261D01*
X216618333Y-27224880D01*
X216570714Y-27320119D01*
X216570714Y-27415357D01*
X216570714Y-27605833D02*
X216570714Y-27986785D01*
X216237380Y-27748690D02*
X217094523Y-27748690D01*
X217189761Y-27796309D01*
X217237380Y-27891547D01*
X217237380Y-27986785D01*
X217189761Y-28272499D02*
X217237380Y-28367738D01*
X217237380Y-28558214D01*
X217189761Y-28653452D01*
X217094523Y-28701071D01*
X217046904Y-28701071D01*
X216951666Y-28653452D01*
X216904047Y-28558214D01*
X216904047Y-28415357D01*
X216856428Y-28320119D01*
X216761190Y-28272499D01*
X216713571Y-28272499D01*
X216618333Y-28320119D01*
X216570714Y-28415357D01*
X216570714Y-28558214D01*
X216618333Y-28653452D01*
X217237380Y-29272499D02*
X217189761Y-29177261D01*
X217142142Y-29129642D01*
X217046904Y-29082023D01*
X216761190Y-29082023D01*
X216665952Y-29129642D01*
X216618333Y-29177261D01*
X216570714Y-29272499D01*
X216570714Y-29415357D01*
X216618333Y-29510595D01*
X216665952Y-29558214D01*
X216761190Y-29605833D01*
X217046904Y-29605833D01*
X217142142Y-29558214D01*
X217189761Y-29510595D01*
X217237380Y-29415357D01*
X217237380Y-29272499D01*
X216570714Y-30034404D02*
X217237380Y-30034404D01*
X216665952Y-30034404D02*
X216618333Y-30082023D01*
X216570714Y-30177261D01*
X216570714Y-30320119D01*
X216618333Y-30415357D01*
X216713571Y-30462976D01*
X217237380Y-30462976D01*
X217189761Y-30986785D02*
X217237380Y-30986785D01*
X217332619Y-30939166D01*
X217380238Y-30891547D01*
X217237380Y-32177261D02*
X216237380Y-32177261D01*
X216951666Y-32510595D01*
X216237380Y-32843928D01*
X217237380Y-32843928D01*
X217237380Y-33748690D02*
X216713571Y-33748690D01*
X216618333Y-33701071D01*
X216570714Y-33605833D01*
X216570714Y-33415357D01*
X216618333Y-33320119D01*
X217189761Y-33748690D02*
X217237380Y-33653452D01*
X217237380Y-33415357D01*
X217189761Y-33320119D01*
X217094523Y-33272499D01*
X216999285Y-33272499D01*
X216904047Y-33320119D01*
X216856428Y-33415357D01*
X216856428Y-33653452D01*
X216808809Y-33748690D01*
X216570714Y-34129642D02*
X217237380Y-34367738D01*
X216570714Y-34605833D02*
X217237380Y-34367738D01*
X217475476Y-34272499D01*
X217523095Y-34224880D01*
X217570714Y-34129642D01*
X216332619Y-35701071D02*
X216285000Y-35748690D01*
X216237380Y-35843928D01*
X216237380Y-36082023D01*
X216285000Y-36177261D01*
X216332619Y-36224880D01*
X216427857Y-36272499D01*
X216523095Y-36272499D01*
X216665952Y-36224880D01*
X217237380Y-35653452D01*
X217237380Y-36272499D01*
X216237380Y-36891547D02*
X216237380Y-36986785D01*
X216285000Y-37082023D01*
X216332619Y-37129642D01*
X216427857Y-37177261D01*
X216618333Y-37224880D01*
X216856428Y-37224880D01*
X217046904Y-37177261D01*
X217142142Y-37129642D01*
X217189761Y-37082023D01*
X217237380Y-36986785D01*
X217237380Y-36891547D01*
X217189761Y-36796309D01*
X217142142Y-36748690D01*
X217046904Y-36701071D01*
X216856428Y-36653452D01*
X216618333Y-36653452D01*
X216427857Y-36701071D01*
X216332619Y-36748690D01*
X216285000Y-36796309D01*
X216237380Y-36891547D01*
X217237380Y-38177261D02*
X217237380Y-37605833D01*
X217237380Y-37891547D02*
X216237380Y-37891547D01*
X216380238Y-37796309D01*
X216475476Y-37701071D01*
X216523095Y-37605833D01*
X217237380Y-38653452D02*
X217237380Y-38843928D01*
X217189761Y-38939166D01*
X217142142Y-38986785D01*
X216999285Y-39082023D01*
X216808809Y-39129642D01*
X216427857Y-39129642D01*
X216332619Y-39082023D01*
X216285000Y-39034404D01*
X216237380Y-38939166D01*
X216237380Y-38748690D01*
X216285000Y-38653452D01*
X216332619Y-38605833D01*
X216427857Y-38558214D01*
X216665952Y-38558214D01*
X216761190Y-38605833D01*
X216808809Y-38653452D01*
X216856428Y-38748690D01*
X216856428Y-38939166D01*
X216808809Y-39034404D01*
X216761190Y-39082023D01*
X216665952Y-39129642D01*
X218887380Y-3510595D02*
X217887380Y-3510595D01*
X218887380Y-3939166D02*
X218363571Y-3939166D01*
X218268333Y-3891547D01*
X218220714Y-3796309D01*
X218220714Y-3653452D01*
X218268333Y-3558214D01*
X218315952Y-3510595D01*
X218220714Y-4272500D02*
X218220714Y-4653452D01*
X217887380Y-4415357D02*
X218744523Y-4415357D01*
X218839761Y-4462976D01*
X218887380Y-4558214D01*
X218887380Y-4653452D01*
X218220714Y-4843928D02*
X218220714Y-5224880D01*
X217887380Y-4986785D02*
X218744523Y-4986785D01*
X218839761Y-5034404D01*
X218887380Y-5129642D01*
X218887380Y-5224880D01*
X218220714Y-5558214D02*
X219220714Y-5558214D01*
X218268333Y-5558214D02*
X218220714Y-5653452D01*
X218220714Y-5843928D01*
X218268333Y-5939166D01*
X218315952Y-5986785D01*
X218411190Y-6034404D01*
X218696904Y-6034404D01*
X218792142Y-5986785D01*
X218839761Y-5939166D01*
X218887380Y-5843928D01*
X218887380Y-5653452D01*
X218839761Y-5558214D01*
X218839761Y-6415357D02*
X218887380Y-6510595D01*
X218887380Y-6701071D01*
X218839761Y-6796309D01*
X218744523Y-6843928D01*
X218696904Y-6843928D01*
X218601666Y-6796309D01*
X218554047Y-6701071D01*
X218554047Y-6558214D01*
X218506428Y-6462976D01*
X218411190Y-6415357D01*
X218363571Y-6415357D01*
X218268333Y-6462976D01*
X218220714Y-6558214D01*
X218220714Y-6701071D01*
X218268333Y-6796309D01*
X218792142Y-7272500D02*
X218839761Y-7320119D01*
X218887380Y-7272500D01*
X218839761Y-7224880D01*
X218792142Y-7272500D01*
X218887380Y-7272500D01*
X218268333Y-7272500D02*
X218315952Y-7320119D01*
X218363571Y-7272500D01*
X218315952Y-7224880D01*
X218268333Y-7272500D01*
X218363571Y-7272500D01*
X217839761Y-8462976D02*
X219125476Y-7605833D01*
X217839761Y-9510595D02*
X219125476Y-8653452D01*
X218220714Y-10272500D02*
X219030238Y-10272500D01*
X219125476Y-10224880D01*
X219173095Y-10177261D01*
X219220714Y-10082023D01*
X219220714Y-9939166D01*
X219173095Y-9843928D01*
X218839761Y-10272500D02*
X218887380Y-10177261D01*
X218887380Y-9986785D01*
X218839761Y-9891547D01*
X218792142Y-9843928D01*
X218696904Y-9796309D01*
X218411190Y-9796309D01*
X218315952Y-9843928D01*
X218268333Y-9891547D01*
X218220714Y-9986785D01*
X218220714Y-10177261D01*
X218268333Y-10272500D01*
X218887380Y-10748690D02*
X218220714Y-10748690D01*
X217887380Y-10748690D02*
X217935000Y-10701071D01*
X217982619Y-10748690D01*
X217935000Y-10796309D01*
X217887380Y-10748690D01*
X217982619Y-10748690D01*
X218220714Y-11082023D02*
X218220714Y-11462976D01*
X217887380Y-11224880D02*
X218744523Y-11224880D01*
X218839761Y-11272500D01*
X218887380Y-11367738D01*
X218887380Y-11462976D01*
X218887380Y-11796309D02*
X217887380Y-11796309D01*
X218887380Y-12224880D02*
X218363571Y-12224880D01*
X218268333Y-12177261D01*
X218220714Y-12082023D01*
X218220714Y-11939166D01*
X218268333Y-11843928D01*
X218315952Y-11796309D01*
X218220714Y-13129642D02*
X218887380Y-13129642D01*
X218220714Y-12701071D02*
X218744523Y-12701071D01*
X218839761Y-12748690D01*
X218887380Y-12843928D01*
X218887380Y-12986785D01*
X218839761Y-13082023D01*
X218792142Y-13129642D01*
X218887380Y-13605833D02*
X217887380Y-13605833D01*
X218268333Y-13605833D02*
X218220714Y-13701071D01*
X218220714Y-13891547D01*
X218268333Y-13986785D01*
X218315952Y-14034404D01*
X218411190Y-14082023D01*
X218696904Y-14082023D01*
X218792142Y-14034404D01*
X218839761Y-13986785D01*
X218887380Y-13891547D01*
X218887380Y-13701071D01*
X218839761Y-13605833D01*
X218792142Y-14510595D02*
X218839761Y-14558214D01*
X218887380Y-14510595D01*
X218839761Y-14462976D01*
X218792142Y-14510595D01*
X218887380Y-14510595D01*
X218839761Y-15415357D02*
X218887380Y-15320119D01*
X218887380Y-15129642D01*
X218839761Y-15034404D01*
X218792142Y-14986785D01*
X218696904Y-14939166D01*
X218411190Y-14939166D01*
X218315952Y-14986785D01*
X218268333Y-15034404D01*
X218220714Y-15129642D01*
X218220714Y-15320119D01*
X218268333Y-15415357D01*
X218887380Y-15986785D02*
X218839761Y-15891547D01*
X218792142Y-15843928D01*
X218696904Y-15796309D01*
X218411190Y-15796309D01*
X218315952Y-15843928D01*
X218268333Y-15891547D01*
X218220714Y-15986785D01*
X218220714Y-16129642D01*
X218268333Y-16224880D01*
X218315952Y-16272500D01*
X218411190Y-16320119D01*
X218696904Y-16320119D01*
X218792142Y-16272500D01*
X218839761Y-16224880D01*
X218887380Y-16129642D01*
X218887380Y-15986785D01*
X218887380Y-16748690D02*
X218220714Y-16748690D01*
X218315952Y-16748690D02*
X218268333Y-16796309D01*
X218220714Y-16891547D01*
X218220714Y-17034404D01*
X218268333Y-17129642D01*
X218363571Y-17177261D01*
X218887380Y-17177261D01*
X218363571Y-17177261D02*
X218268333Y-17224880D01*
X218220714Y-17320119D01*
X218220714Y-17462976D01*
X218268333Y-17558214D01*
X218363571Y-17605833D01*
X218887380Y-17605833D01*
X217839761Y-18796309D02*
X219125476Y-17939166D01*
X218839761Y-19558214D02*
X218887380Y-19462976D01*
X218887380Y-19272500D01*
X218839761Y-19177261D01*
X218792142Y-19129642D01*
X218696904Y-19082023D01*
X218411190Y-19082023D01*
X218315952Y-19129642D01*
X218268333Y-19177261D01*
X218220714Y-19272500D01*
X218220714Y-19462976D01*
X218268333Y-19558214D01*
X218887380Y-19986785D02*
X217887380Y-19986785D01*
X218887380Y-20415357D02*
X218363571Y-20415357D01*
X218268333Y-20367738D01*
X218220714Y-20272500D01*
X218220714Y-20129642D01*
X218268333Y-20034404D01*
X218315952Y-19986785D01*
X218887380Y-20891547D02*
X218220714Y-20891547D01*
X218411190Y-20891547D02*
X218315952Y-20939166D01*
X218268333Y-20986785D01*
X218220714Y-21082023D01*
X218220714Y-21177261D01*
X218887380Y-21510595D02*
X218220714Y-21510595D01*
X217887380Y-21510595D02*
X217935000Y-21462976D01*
X217982619Y-21510595D01*
X217935000Y-21558214D01*
X217887380Y-21510595D01*
X217982619Y-21510595D01*
X218839761Y-21939166D02*
X218887380Y-22034404D01*
X218887380Y-22224880D01*
X218839761Y-22320119D01*
X218744523Y-22367738D01*
X218696904Y-22367738D01*
X218601666Y-22320119D01*
X218554047Y-22224880D01*
X218554047Y-22082023D01*
X218506428Y-21986785D01*
X218411190Y-21939166D01*
X218363571Y-21939166D01*
X218268333Y-21986785D01*
X218220714Y-22082023D01*
X218220714Y-22224880D01*
X218268333Y-22320119D01*
X218887380Y-23224880D02*
X218363571Y-23224880D01*
X218268333Y-23177261D01*
X218220714Y-23082023D01*
X218220714Y-22891547D01*
X218268333Y-22796309D01*
X218839761Y-23224880D02*
X218887380Y-23129642D01*
X218887380Y-22891547D01*
X218839761Y-22796309D01*
X218744523Y-22748690D01*
X218649285Y-22748690D01*
X218554047Y-22796309D01*
X218506428Y-22891547D01*
X218506428Y-23129642D01*
X218458809Y-23224880D01*
X218887380Y-23843928D02*
X218839761Y-23748690D01*
X218744523Y-23701071D01*
X217887380Y-23701071D01*
X218887380Y-24224880D02*
X217887380Y-24224880D01*
X218268333Y-24224880D02*
X218220714Y-24320119D01*
X218220714Y-24510595D01*
X218268333Y-24605833D01*
X218315952Y-24653452D01*
X218411190Y-24701071D01*
X218696904Y-24701071D01*
X218792142Y-24653452D01*
X218839761Y-24605833D01*
X218887380Y-24510595D01*
X218887380Y-24320119D01*
X218839761Y-24224880D01*
X218839761Y-25510595D02*
X218887380Y-25415357D01*
X218887380Y-25224880D01*
X218839761Y-25129642D01*
X218744523Y-25082023D01*
X218363571Y-25082023D01*
X218268333Y-25129642D01*
X218220714Y-25224880D01*
X218220714Y-25415357D01*
X218268333Y-25510595D01*
X218363571Y-25558214D01*
X218458809Y-25558214D01*
X218554047Y-25082023D01*
X218887380Y-25986785D02*
X218220714Y-25986785D01*
X218411190Y-25986785D02*
X218315952Y-26034404D01*
X218268333Y-26082023D01*
X218220714Y-26177261D01*
X218220714Y-26272500D01*
X218220714Y-26462976D02*
X218220714Y-26843928D01*
X217887380Y-26605833D02*
X218744523Y-26605833D01*
X218839761Y-26653452D01*
X218887380Y-26748690D01*
X218887380Y-26843928D01*
X218839761Y-27129642D02*
X218887380Y-27224880D01*
X218887380Y-27415357D01*
X218839761Y-27510595D01*
X218744523Y-27558214D01*
X218696904Y-27558214D01*
X218601666Y-27510595D01*
X218554047Y-27415357D01*
X218554047Y-27272500D01*
X218506428Y-27177261D01*
X218411190Y-27129642D01*
X218363571Y-27129642D01*
X218268333Y-27177261D01*
X218220714Y-27272500D01*
X218220714Y-27415357D01*
X218268333Y-27510595D01*
X218887380Y-28129642D02*
X218839761Y-28034404D01*
X218792142Y-27986785D01*
X218696904Y-27939166D01*
X218411190Y-27939166D01*
X218315952Y-27986785D01*
X218268333Y-28034404D01*
X218220714Y-28129642D01*
X218220714Y-28272500D01*
X218268333Y-28367738D01*
X218315952Y-28415357D01*
X218411190Y-28462976D01*
X218696904Y-28462976D01*
X218792142Y-28415357D01*
X218839761Y-28367738D01*
X218887380Y-28272500D01*
X218887380Y-28129642D01*
X218220714Y-28891547D02*
X218887380Y-28891547D01*
X218315952Y-28891547D02*
X218268333Y-28939166D01*
X218220714Y-29034404D01*
X218220714Y-29177261D01*
X218268333Y-29272500D01*
X218363571Y-29320119D01*
X218887380Y-29320119D01*
X217839761Y-30510595D02*
X219125476Y-29653452D01*
X218887380Y-30843928D02*
X217887380Y-30843928D01*
X218887380Y-31415357D01*
X217887380Y-31415357D01*
X218839761Y-32272500D02*
X218887380Y-32177261D01*
X218887380Y-31986785D01*
X218839761Y-31891547D01*
X218744523Y-31843928D01*
X218363571Y-31843928D01*
X218268333Y-31891547D01*
X218220714Y-31986785D01*
X218220714Y-32177261D01*
X218268333Y-32272500D01*
X218363571Y-32320119D01*
X218458809Y-32320119D01*
X218554047Y-31843928D01*
X218887380Y-33177261D02*
X218363571Y-33177261D01*
X218268333Y-33129642D01*
X218220714Y-33034404D01*
X218220714Y-32843928D01*
X218268333Y-32748690D01*
X218839761Y-33177261D02*
X218887380Y-33082023D01*
X218887380Y-32843928D01*
X218839761Y-32748690D01*
X218744523Y-32701071D01*
X218649285Y-32701071D01*
X218554047Y-32748690D01*
X218506428Y-32843928D01*
X218506428Y-33082023D01*
X218458809Y-33177261D01*
X218220714Y-33510595D02*
X218220714Y-33891547D01*
X217887380Y-33653452D02*
X218744523Y-33653452D01*
X218839761Y-33701071D01*
X218887380Y-33796309D01*
X218887380Y-33891547D01*
X218887380Y-34367738D02*
X218839761Y-34272500D01*
X218792142Y-34224880D01*
X218696904Y-34177261D01*
X218411190Y-34177261D01*
X218315952Y-34224880D01*
X218268333Y-34272500D01*
X218220714Y-34367738D01*
X218220714Y-34510595D01*
X218268333Y-34605833D01*
X218315952Y-34653452D01*
X218411190Y-34701071D01*
X218696904Y-34701071D01*
X218792142Y-34653452D01*
X218839761Y-34605833D01*
X218887380Y-34510595D01*
X218887380Y-34367738D01*
X218887380Y-35605833D02*
X218887380Y-35129642D01*
X217887380Y-35129642D01*
X218887380Y-35939166D02*
X218220714Y-35939166D01*
X217887380Y-35939166D02*
X217935000Y-35891547D01*
X217982619Y-35939166D01*
X217935000Y-35986785D01*
X217887380Y-35939166D01*
X217982619Y-35939166D01*
X218887380Y-36843928D02*
X217887380Y-36843928D01*
X218839761Y-36843928D02*
X218887380Y-36748690D01*
X218887380Y-36558214D01*
X218839761Y-36462976D01*
X218792142Y-36415357D01*
X218696904Y-36367738D01*
X218411190Y-36367738D01*
X218315952Y-36415357D01*
X218268333Y-36462976D01*
X218220714Y-36558214D01*
X218220714Y-36748690D01*
X218268333Y-36843928D01*
X218887380Y-37748690D02*
X218363571Y-37748690D01*
X218268333Y-37701071D01*
X218220714Y-37605833D01*
X218220714Y-37415357D01*
X218268333Y-37320119D01*
X218839761Y-37748690D02*
X218887380Y-37653452D01*
X218887380Y-37415357D01*
X218839761Y-37320119D01*
X218744523Y-37272500D01*
X218649285Y-37272500D01*
X218554047Y-37320119D01*
X218506428Y-37415357D01*
X218506428Y-37653452D01*
X218458809Y-37748690D01*
X218887380Y-38224880D02*
X218220714Y-38224880D01*
X218411190Y-38224880D02*
X218315952Y-38272500D01*
X218268333Y-38320119D01*
X218220714Y-38415357D01*
X218220714Y-38510595D01*
X218887380Y-38843928D02*
X217887380Y-38843928D01*
X218220714Y-39320119D02*
X218887380Y-39320119D01*
X218315952Y-39320119D02*
X218268333Y-39367738D01*
X218220714Y-39462976D01*
X218220714Y-39605833D01*
X218268333Y-39701071D01*
X218363571Y-39748690D01*
X218887380Y-39748690D01*
X218220714Y-40082023D02*
X218220714Y-40462976D01*
X217887380Y-40224880D02*
X218744523Y-40224880D01*
X218839761Y-40272500D01*
X218887380Y-40367738D01*
X218887380Y-40462976D01*
X218839761Y-41177261D02*
X218887380Y-41082023D01*
X218887380Y-40891547D01*
X218839761Y-40796309D01*
X218744523Y-40748690D01*
X218363571Y-40748690D01*
X218268333Y-40796309D01*
X218220714Y-40891547D01*
X218220714Y-41082023D01*
X218268333Y-41177261D01*
X218363571Y-41224880D01*
X218458809Y-41224880D01*
X218554047Y-40748690D01*
X218887380Y-41653452D02*
X218220714Y-41653452D01*
X218411190Y-41653452D02*
X218315952Y-41701071D01*
X218268333Y-41748690D01*
X218220714Y-41843928D01*
X218220714Y-41939166D01*
X218220714Y-42129642D02*
X218220714Y-42510595D01*
X218887380Y-42272500D02*
X218030238Y-42272500D01*
X217935000Y-42320119D01*
X217887380Y-42415357D01*
X217887380Y-42510595D01*
X218887380Y-43272500D02*
X218363571Y-43272500D01*
X218268333Y-43224880D01*
X218220714Y-43129642D01*
X218220714Y-42939166D01*
X218268333Y-42843928D01*
X218839761Y-43272500D02*
X218887380Y-43177261D01*
X218887380Y-42939166D01*
X218839761Y-42843928D01*
X218744523Y-42796309D01*
X218649285Y-42796309D01*
X218554047Y-42843928D01*
X218506428Y-42939166D01*
X218506428Y-43177261D01*
X218458809Y-43272500D01*
X218839761Y-44177261D02*
X218887380Y-44082023D01*
X218887380Y-43891547D01*
X218839761Y-43796309D01*
X218792142Y-43748690D01*
X218696904Y-43701071D01*
X218411190Y-43701071D01*
X218315952Y-43748690D01*
X218268333Y-43796309D01*
X218220714Y-43891547D01*
X218220714Y-44082023D01*
X218268333Y-44177261D01*
X218839761Y-44986785D02*
X218887380Y-44891547D01*
X218887380Y-44701071D01*
X218839761Y-44605833D01*
X218744523Y-44558214D01*
X218363571Y-44558214D01*
X218268333Y-44605833D01*
X218220714Y-44701071D01*
X218220714Y-44891547D01*
X218268333Y-44986785D01*
X218363571Y-45034404D01*
X218458809Y-45034404D01*
X218554047Y-44558214D01*
M02*
