G04 #@! TF.GenerationSoftware,KiCad,Pcbnew,(5.1.2-1)-1*
G04 #@! TF.CreationDate,2019-05-31T22:43:23-07:00*
G04 #@! TF.ProjectId,NeatoLidarInterface,4e656174-6f4c-4696-9461-72496e746572,rev?*
G04 #@! TF.SameCoordinates,Original*
G04 #@! TF.FileFunction,Soldermask,Bot*
G04 #@! TF.FilePolarity,Negative*
%FSLAX46Y46*%
G04 Gerber Fmt 4.6, Leading zero omitted, Abs format (unit mm)*
G04 Created by KiCad (PCBNEW (5.1.2-1)-1) date 2019-05-31 22:43:23*
%MOMM*%
%LPD*%
G04 APERTURE LIST*
%ADD10C,0.100000*%
G04 APERTURE END LIST*
D10*
G36*
X214927143Y-52618243D02*
G01*
X215075102Y-52679530D01*
X215208256Y-52768500D01*
X215321502Y-52881746D01*
X215410472Y-53014900D01*
X215471759Y-53162859D01*
X215503001Y-53319926D01*
X215503001Y-53480076D01*
X215471759Y-53637143D01*
X215410472Y-53785102D01*
X215321502Y-53918256D01*
X215208256Y-54031502D01*
X215075102Y-54120472D01*
X214927143Y-54181759D01*
X214770076Y-54213001D01*
X214609926Y-54213001D01*
X214452859Y-54181759D01*
X214304900Y-54120472D01*
X214171746Y-54031502D01*
X214058500Y-53918256D01*
X213969530Y-53785102D01*
X213908243Y-53637143D01*
X213877001Y-53480076D01*
X213877001Y-53319926D01*
X213908243Y-53162859D01*
X213969530Y-53014900D01*
X214058500Y-52881746D01*
X214171746Y-52768500D01*
X214304900Y-52679530D01*
X214452859Y-52618243D01*
X214609926Y-52587001D01*
X214770076Y-52587001D01*
X214927143Y-52618243D01*
X214927143Y-52618243D01*
G37*
G36*
X199687143Y-52618243D02*
G01*
X199835102Y-52679530D01*
X199968256Y-52768500D01*
X200081502Y-52881746D01*
X200170472Y-53014900D01*
X200231759Y-53162859D01*
X200263001Y-53319926D01*
X200263001Y-53480076D01*
X200231759Y-53637143D01*
X200170472Y-53785102D01*
X200081502Y-53918256D01*
X199968256Y-54031502D01*
X199835102Y-54120472D01*
X199687143Y-54181759D01*
X199530076Y-54213001D01*
X199369926Y-54213001D01*
X199212859Y-54181759D01*
X199064900Y-54120472D01*
X198931746Y-54031502D01*
X198818500Y-53918256D01*
X198729530Y-53785102D01*
X198668243Y-53637143D01*
X198637001Y-53480076D01*
X198637001Y-53319926D01*
X198668243Y-53162859D01*
X198729530Y-53014900D01*
X198818500Y-52881746D01*
X198931746Y-52768500D01*
X199064900Y-52679530D01*
X199212859Y-52618243D01*
X199369926Y-52587001D01*
X199530076Y-52587001D01*
X199687143Y-52618243D01*
X199687143Y-52618243D01*
G37*
G36*
X193288228Y-52521703D02*
G01*
X193443100Y-52585853D01*
X193582481Y-52678985D01*
X193701015Y-52797519D01*
X193794147Y-52936900D01*
X193858297Y-53091772D01*
X193891000Y-53256184D01*
X193891000Y-53423816D01*
X193858297Y-53588228D01*
X193794147Y-53743100D01*
X193701015Y-53882481D01*
X193582481Y-54001015D01*
X193443100Y-54094147D01*
X193288228Y-54158297D01*
X193123816Y-54191000D01*
X192956184Y-54191000D01*
X192791772Y-54158297D01*
X192636900Y-54094147D01*
X192497519Y-54001015D01*
X192378985Y-53882481D01*
X192285853Y-53743100D01*
X192221703Y-53588228D01*
X192189000Y-53423816D01*
X192189000Y-53256184D01*
X192221703Y-53091772D01*
X192285853Y-52936900D01*
X192378985Y-52797519D01*
X192497519Y-52678985D01*
X192636900Y-52585853D01*
X192791772Y-52521703D01*
X192956184Y-52489000D01*
X193123816Y-52489000D01*
X193288228Y-52521703D01*
X193288228Y-52521703D01*
G37*
G36*
X214927143Y-50078243D02*
G01*
X215075102Y-50139530D01*
X215208256Y-50228500D01*
X215321502Y-50341746D01*
X215410472Y-50474900D01*
X215471759Y-50622859D01*
X215503001Y-50779926D01*
X215503001Y-50940076D01*
X215471759Y-51097143D01*
X215410472Y-51245102D01*
X215321502Y-51378256D01*
X215208256Y-51491502D01*
X215075102Y-51580472D01*
X214927143Y-51641759D01*
X214770076Y-51673001D01*
X214609926Y-51673001D01*
X214452859Y-51641759D01*
X214304900Y-51580472D01*
X214171746Y-51491502D01*
X214058500Y-51378256D01*
X213969530Y-51245102D01*
X213908243Y-51097143D01*
X213877001Y-50940076D01*
X213877001Y-50779926D01*
X213908243Y-50622859D01*
X213969530Y-50474900D01*
X214058500Y-50341746D01*
X214171746Y-50228500D01*
X214304900Y-50139530D01*
X214452859Y-50078243D01*
X214609926Y-50047001D01*
X214770076Y-50047001D01*
X214927143Y-50078243D01*
X214927143Y-50078243D01*
G37*
G36*
X199687143Y-50078243D02*
G01*
X199835102Y-50139530D01*
X199968256Y-50228500D01*
X200081502Y-50341746D01*
X200170472Y-50474900D01*
X200231759Y-50622859D01*
X200263001Y-50779926D01*
X200263001Y-50940076D01*
X200231759Y-51097143D01*
X200170472Y-51245102D01*
X200081502Y-51378256D01*
X199968256Y-51491502D01*
X199835102Y-51580472D01*
X199687143Y-51641759D01*
X199530076Y-51673001D01*
X199369926Y-51673001D01*
X199212859Y-51641759D01*
X199064900Y-51580472D01*
X198931746Y-51491502D01*
X198818500Y-51378256D01*
X198729530Y-51245102D01*
X198668243Y-51097143D01*
X198637001Y-50940076D01*
X198637001Y-50779926D01*
X198668243Y-50622859D01*
X198729530Y-50474900D01*
X198818500Y-50341746D01*
X198931746Y-50228500D01*
X199064900Y-50139530D01*
X199212859Y-50078243D01*
X199369926Y-50047001D01*
X199530076Y-50047001D01*
X199687143Y-50078243D01*
X199687143Y-50078243D01*
G37*
G36*
X186753855Y-48882140D02*
G01*
X186817618Y-48888420D01*
X186892054Y-48911000D01*
X186940336Y-48925646D01*
X187053425Y-48986094D01*
X187152554Y-49067446D01*
X187233906Y-49166575D01*
X187294354Y-49279664D01*
X187294355Y-49279668D01*
X187331580Y-49402382D01*
X187344149Y-49530000D01*
X187331580Y-49657618D01*
X187304040Y-49748404D01*
X187294354Y-49780336D01*
X187233906Y-49893425D01*
X187152554Y-49992554D01*
X187053425Y-50073906D01*
X186940336Y-50134354D01*
X186908404Y-50144040D01*
X186817618Y-50171580D01*
X186753855Y-50177860D01*
X186721974Y-50181000D01*
X186658026Y-50181000D01*
X186626145Y-50177860D01*
X186562382Y-50171580D01*
X186471596Y-50144040D01*
X186439664Y-50134354D01*
X186326575Y-50073906D01*
X186227446Y-49992554D01*
X186146094Y-49893425D01*
X186085646Y-49780336D01*
X186075960Y-49748404D01*
X186048420Y-49657618D01*
X186035851Y-49530000D01*
X186048420Y-49402382D01*
X186085645Y-49279668D01*
X186085646Y-49279664D01*
X186146094Y-49166575D01*
X186227446Y-49067446D01*
X186326575Y-48986094D01*
X186439664Y-48925646D01*
X186487946Y-48911000D01*
X186562382Y-48888420D01*
X186626145Y-48882140D01*
X186658026Y-48879000D01*
X186721974Y-48879000D01*
X186753855Y-48882140D01*
X186753855Y-48882140D01*
G37*
G36*
X214927143Y-47538243D02*
G01*
X215075102Y-47599530D01*
X215208256Y-47688500D01*
X215321502Y-47801746D01*
X215410472Y-47934900D01*
X215471759Y-48082859D01*
X215503001Y-48239926D01*
X215503001Y-48400076D01*
X215471759Y-48557143D01*
X215410472Y-48705102D01*
X215321502Y-48838256D01*
X215208256Y-48951502D01*
X215075102Y-49040472D01*
X214927143Y-49101759D01*
X214770076Y-49133001D01*
X214609926Y-49133001D01*
X214452859Y-49101759D01*
X214304900Y-49040472D01*
X214171746Y-48951502D01*
X214058500Y-48838256D01*
X213969530Y-48705102D01*
X213908243Y-48557143D01*
X213877001Y-48400076D01*
X213877001Y-48239926D01*
X213908243Y-48082859D01*
X213969530Y-47934900D01*
X214058500Y-47801746D01*
X214171746Y-47688500D01*
X214304900Y-47599530D01*
X214452859Y-47538243D01*
X214609926Y-47507001D01*
X214770076Y-47507001D01*
X214927143Y-47538243D01*
X214927143Y-47538243D01*
G37*
G36*
X199687143Y-47538243D02*
G01*
X199835102Y-47599530D01*
X199968256Y-47688500D01*
X200081502Y-47801746D01*
X200170472Y-47934900D01*
X200231759Y-48082859D01*
X200263001Y-48239926D01*
X200263001Y-48400076D01*
X200231759Y-48557143D01*
X200170472Y-48705102D01*
X200081502Y-48838256D01*
X199968256Y-48951502D01*
X199835102Y-49040472D01*
X199687143Y-49101759D01*
X199530076Y-49133001D01*
X199369926Y-49133001D01*
X199212859Y-49101759D01*
X199064900Y-49040472D01*
X198931746Y-48951502D01*
X198818500Y-48838256D01*
X198729530Y-48705102D01*
X198668243Y-48557143D01*
X198637001Y-48400076D01*
X198637001Y-48239926D01*
X198668243Y-48082859D01*
X198729530Y-47934900D01*
X198818500Y-47801746D01*
X198931746Y-47688500D01*
X199064900Y-47599530D01*
X199212859Y-47538243D01*
X199369926Y-47507001D01*
X199530076Y-47507001D01*
X199687143Y-47538243D01*
X199687143Y-47538243D01*
G37*
G36*
X188023855Y-47612140D02*
G01*
X188087618Y-47618420D01*
X188178404Y-47645960D01*
X188210336Y-47655646D01*
X188323425Y-47716094D01*
X188422554Y-47797446D01*
X188503906Y-47896575D01*
X188564354Y-48009664D01*
X188564355Y-48009668D01*
X188601580Y-48132382D01*
X188614149Y-48260000D01*
X188601580Y-48387618D01*
X188574040Y-48478404D01*
X188564354Y-48510336D01*
X188503906Y-48623425D01*
X188422554Y-48722554D01*
X188323425Y-48803906D01*
X188210336Y-48864354D01*
X188178404Y-48874040D01*
X188087618Y-48901580D01*
X188023855Y-48907860D01*
X187991974Y-48911000D01*
X187928026Y-48911000D01*
X187896145Y-48907860D01*
X187832382Y-48901580D01*
X187741596Y-48874040D01*
X187709664Y-48864354D01*
X187596575Y-48803906D01*
X187497446Y-48722554D01*
X187416094Y-48623425D01*
X187355646Y-48510336D01*
X187345960Y-48478404D01*
X187318420Y-48387618D01*
X187305851Y-48260000D01*
X187318420Y-48132382D01*
X187355645Y-48009668D01*
X187355646Y-48009664D01*
X187416094Y-47896575D01*
X187497446Y-47797446D01*
X187596575Y-47716094D01*
X187709664Y-47655646D01*
X187741596Y-47645960D01*
X187832382Y-47618420D01*
X187896145Y-47612140D01*
X187928026Y-47609000D01*
X187991974Y-47609000D01*
X188023855Y-47612140D01*
X188023855Y-47612140D01*
G37*
G36*
X185683855Y-47612140D02*
G01*
X185747618Y-47618420D01*
X185838404Y-47645960D01*
X185870336Y-47655646D01*
X185983425Y-47716094D01*
X186082554Y-47797446D01*
X186163906Y-47896575D01*
X186224354Y-48009664D01*
X186224355Y-48009668D01*
X186261580Y-48132382D01*
X186274149Y-48260000D01*
X186261580Y-48387618D01*
X186234040Y-48478404D01*
X186224354Y-48510336D01*
X186163906Y-48623425D01*
X186082554Y-48722554D01*
X185983425Y-48803906D01*
X185870336Y-48864354D01*
X185838404Y-48874040D01*
X185747618Y-48901580D01*
X185683855Y-48907860D01*
X185651974Y-48911000D01*
X185188026Y-48911000D01*
X185156145Y-48907860D01*
X185092382Y-48901580D01*
X185001596Y-48874040D01*
X184969664Y-48864354D01*
X184856575Y-48803906D01*
X184757446Y-48722554D01*
X184676094Y-48623425D01*
X184615646Y-48510336D01*
X184605960Y-48478404D01*
X184578420Y-48387618D01*
X184565851Y-48260000D01*
X184578420Y-48132382D01*
X184615645Y-48009668D01*
X184615646Y-48009664D01*
X184676094Y-47896575D01*
X184757446Y-47797446D01*
X184856575Y-47716094D01*
X184969664Y-47655646D01*
X185001596Y-47645960D01*
X185092382Y-47618420D01*
X185156145Y-47612140D01*
X185188026Y-47609000D01*
X185651974Y-47609000D01*
X185683855Y-47612140D01*
X185683855Y-47612140D01*
G37*
G36*
X214927143Y-44998243D02*
G01*
X215075102Y-45059530D01*
X215208256Y-45148500D01*
X215321502Y-45261746D01*
X215410472Y-45394900D01*
X215471759Y-45542859D01*
X215503001Y-45699926D01*
X215503001Y-45860076D01*
X215471759Y-46017143D01*
X215410472Y-46165102D01*
X215321502Y-46298256D01*
X215208256Y-46411502D01*
X215075102Y-46500472D01*
X214927143Y-46561759D01*
X214770076Y-46593001D01*
X214609926Y-46593001D01*
X214452859Y-46561759D01*
X214304900Y-46500472D01*
X214171746Y-46411502D01*
X214058500Y-46298256D01*
X213969530Y-46165102D01*
X213908243Y-46017143D01*
X213877001Y-45860076D01*
X213877001Y-45699926D01*
X213908243Y-45542859D01*
X213969530Y-45394900D01*
X214058500Y-45261746D01*
X214171746Y-45148500D01*
X214304900Y-45059530D01*
X214452859Y-44998243D01*
X214609926Y-44967001D01*
X214770076Y-44967001D01*
X214927143Y-44998243D01*
X214927143Y-44998243D01*
G37*
G36*
X199687143Y-44998243D02*
G01*
X199835102Y-45059530D01*
X199968256Y-45148500D01*
X200081502Y-45261746D01*
X200170472Y-45394900D01*
X200231759Y-45542859D01*
X200263001Y-45699926D01*
X200263001Y-45860076D01*
X200231759Y-46017143D01*
X200170472Y-46165102D01*
X200081502Y-46298256D01*
X199968256Y-46411502D01*
X199835102Y-46500472D01*
X199687143Y-46561759D01*
X199530076Y-46593001D01*
X199369926Y-46593001D01*
X199212859Y-46561759D01*
X199064900Y-46500472D01*
X198931746Y-46411502D01*
X198818500Y-46298256D01*
X198729530Y-46165102D01*
X198668243Y-46017143D01*
X198637001Y-45860076D01*
X198637001Y-45699926D01*
X198668243Y-45542859D01*
X198729530Y-45394900D01*
X198818500Y-45261746D01*
X198931746Y-45148500D01*
X199064900Y-45059530D01*
X199212859Y-44998243D01*
X199369926Y-44967001D01*
X199530076Y-44967001D01*
X199687143Y-44998243D01*
X199687143Y-44998243D01*
G37*
G36*
X193206823Y-44881313D02*
G01*
X193367242Y-44929976D01*
X193494960Y-44998243D01*
X193515078Y-45008996D01*
X193644659Y-45115341D01*
X193751004Y-45244922D01*
X193751005Y-45244924D01*
X193830024Y-45392758D01*
X193878687Y-45553177D01*
X193895117Y-45720000D01*
X193878687Y-45886823D01*
X193830024Y-46047242D01*
X193767027Y-46165101D01*
X193751004Y-46195078D01*
X193644659Y-46324659D01*
X193515078Y-46431004D01*
X193515076Y-46431005D01*
X193367242Y-46510024D01*
X193206823Y-46558687D01*
X193081804Y-46571000D01*
X192998196Y-46571000D01*
X192873177Y-46558687D01*
X192712758Y-46510024D01*
X192564924Y-46431005D01*
X192564922Y-46431004D01*
X192435341Y-46324659D01*
X192328996Y-46195078D01*
X192312973Y-46165101D01*
X192249976Y-46047242D01*
X192201313Y-45886823D01*
X192184883Y-45720000D01*
X192201313Y-45553177D01*
X192249976Y-45392758D01*
X192328995Y-45244924D01*
X192328996Y-45244922D01*
X192435341Y-45115341D01*
X192564922Y-45008996D01*
X192585040Y-44998243D01*
X192712758Y-44929976D01*
X192873177Y-44881313D01*
X192998196Y-44869000D01*
X193081804Y-44869000D01*
X193206823Y-44881313D01*
X193206823Y-44881313D01*
G37*
G36*
X214927143Y-42458243D02*
G01*
X215075102Y-42519530D01*
X215208256Y-42608500D01*
X215321502Y-42721746D01*
X215410472Y-42854900D01*
X215471759Y-43002859D01*
X215503001Y-43159926D01*
X215503001Y-43320076D01*
X215471759Y-43477143D01*
X215410472Y-43625102D01*
X215321502Y-43758256D01*
X215208256Y-43871502D01*
X215075102Y-43960472D01*
X214927143Y-44021759D01*
X214770076Y-44053001D01*
X214609926Y-44053001D01*
X214452859Y-44021759D01*
X214304900Y-43960472D01*
X214171746Y-43871502D01*
X214058500Y-43758256D01*
X213969530Y-43625102D01*
X213908243Y-43477143D01*
X213877001Y-43320076D01*
X213877001Y-43159926D01*
X213908243Y-43002859D01*
X213969530Y-42854900D01*
X214058500Y-42721746D01*
X214171746Y-42608500D01*
X214304900Y-42519530D01*
X214452859Y-42458243D01*
X214609926Y-42427001D01*
X214770076Y-42427001D01*
X214927143Y-42458243D01*
X214927143Y-42458243D01*
G37*
G36*
X199687143Y-42458243D02*
G01*
X199835102Y-42519530D01*
X199968256Y-42608500D01*
X200081502Y-42721746D01*
X200170472Y-42854900D01*
X200231759Y-43002859D01*
X200263001Y-43159926D01*
X200263001Y-43320076D01*
X200231759Y-43477143D01*
X200170472Y-43625102D01*
X200081502Y-43758256D01*
X199968256Y-43871502D01*
X199835102Y-43960472D01*
X199687143Y-44021759D01*
X199530076Y-44053001D01*
X199369926Y-44053001D01*
X199212859Y-44021759D01*
X199064900Y-43960472D01*
X198931746Y-43871502D01*
X198818500Y-43758256D01*
X198729530Y-43625102D01*
X198668243Y-43477143D01*
X198637001Y-43320076D01*
X198637001Y-43159926D01*
X198668243Y-43002859D01*
X198729530Y-42854900D01*
X198818500Y-42721746D01*
X198931746Y-42608500D01*
X199064900Y-42519530D01*
X199212859Y-42458243D01*
X199369926Y-42427001D01*
X199530076Y-42427001D01*
X199687143Y-42458243D01*
X199687143Y-42458243D01*
G37*
G36*
X199687143Y-39918243D02*
G01*
X199835102Y-39979530D01*
X199968256Y-40068500D01*
X200081502Y-40181746D01*
X200170472Y-40314900D01*
X200231759Y-40462859D01*
X200263001Y-40619926D01*
X200263001Y-40780076D01*
X200231759Y-40937143D01*
X200170472Y-41085102D01*
X200081502Y-41218256D01*
X199968256Y-41331502D01*
X199835102Y-41420472D01*
X199687143Y-41481759D01*
X199530076Y-41513001D01*
X199369926Y-41513001D01*
X199212859Y-41481759D01*
X199064900Y-41420472D01*
X198931746Y-41331502D01*
X198818500Y-41218256D01*
X198729530Y-41085102D01*
X198668243Y-40937143D01*
X198637001Y-40780076D01*
X198637001Y-40619926D01*
X198668243Y-40462859D01*
X198729530Y-40314900D01*
X198818500Y-40181746D01*
X198931746Y-40068500D01*
X199064900Y-39979530D01*
X199212859Y-39918243D01*
X199369926Y-39887001D01*
X199530076Y-39887001D01*
X199687143Y-39918243D01*
X199687143Y-39918243D01*
G37*
G36*
X214927143Y-39918243D02*
G01*
X215075102Y-39979530D01*
X215208256Y-40068500D01*
X215321502Y-40181746D01*
X215410472Y-40314900D01*
X215471759Y-40462859D01*
X215503001Y-40619926D01*
X215503001Y-40780076D01*
X215471759Y-40937143D01*
X215410472Y-41085102D01*
X215321502Y-41218256D01*
X215208256Y-41331502D01*
X215075102Y-41420472D01*
X214927143Y-41481759D01*
X214770076Y-41513001D01*
X214609926Y-41513001D01*
X214452859Y-41481759D01*
X214304900Y-41420472D01*
X214171746Y-41331502D01*
X214058500Y-41218256D01*
X213969530Y-41085102D01*
X213908243Y-40937143D01*
X213877001Y-40780076D01*
X213877001Y-40619926D01*
X213908243Y-40462859D01*
X213969530Y-40314900D01*
X214058500Y-40181746D01*
X214171746Y-40068500D01*
X214304900Y-39979530D01*
X214452859Y-39918243D01*
X214609926Y-39887001D01*
X214770076Y-39887001D01*
X214927143Y-39918243D01*
X214927143Y-39918243D01*
G37*
G36*
X184332597Y-38768056D02*
G01*
X184446521Y-38815245D01*
X184446522Y-38815246D01*
X184549052Y-38883754D01*
X184636246Y-38970948D01*
X184670733Y-39022562D01*
X184704755Y-39073479D01*
X184751944Y-39187403D01*
X184776000Y-39308343D01*
X184776000Y-39431657D01*
X184751944Y-39552597D01*
X184704755Y-39666521D01*
X184704754Y-39666522D01*
X184636246Y-39769052D01*
X184549052Y-39856246D01*
X184503024Y-39887001D01*
X184446521Y-39924755D01*
X184332597Y-39971944D01*
X184211657Y-39996000D01*
X184088343Y-39996000D01*
X183967403Y-39971944D01*
X183853479Y-39924755D01*
X183796976Y-39887001D01*
X183750948Y-39856246D01*
X183663754Y-39769052D01*
X183595246Y-39666522D01*
X183595245Y-39666521D01*
X183548056Y-39552597D01*
X183524000Y-39431657D01*
X183524000Y-39308343D01*
X183548056Y-39187403D01*
X183595245Y-39073479D01*
X183629267Y-39022562D01*
X183663754Y-38970948D01*
X183750948Y-38883754D01*
X183853478Y-38815246D01*
X183853479Y-38815245D01*
X183967403Y-38768056D01*
X184088343Y-38744000D01*
X184211657Y-38744000D01*
X184332597Y-38768056D01*
X184332597Y-38768056D01*
G37*
G36*
X199687143Y-37378243D02*
G01*
X199835102Y-37439530D01*
X199968256Y-37528500D01*
X200081502Y-37641746D01*
X200170472Y-37774900D01*
X200231759Y-37922859D01*
X200263001Y-38079926D01*
X200263001Y-38240076D01*
X200231759Y-38397143D01*
X200170472Y-38545102D01*
X200081502Y-38678256D01*
X199968256Y-38791502D01*
X199835102Y-38880472D01*
X199687143Y-38941759D01*
X199530076Y-38973001D01*
X199369926Y-38973001D01*
X199212859Y-38941759D01*
X199064900Y-38880472D01*
X198931746Y-38791502D01*
X198818500Y-38678256D01*
X198729530Y-38545102D01*
X198668243Y-38397143D01*
X198637001Y-38240076D01*
X198637001Y-38079926D01*
X198668243Y-37922859D01*
X198729530Y-37774900D01*
X198818500Y-37641746D01*
X198931746Y-37528500D01*
X199064900Y-37439530D01*
X199212859Y-37378243D01*
X199369926Y-37347001D01*
X199530076Y-37347001D01*
X199687143Y-37378243D01*
X199687143Y-37378243D01*
G37*
G36*
X214927143Y-37378243D02*
G01*
X215075102Y-37439530D01*
X215208256Y-37528500D01*
X215321502Y-37641746D01*
X215410472Y-37774900D01*
X215471759Y-37922859D01*
X215503001Y-38079926D01*
X215503001Y-38240076D01*
X215471759Y-38397143D01*
X215410472Y-38545102D01*
X215321502Y-38678256D01*
X215208256Y-38791502D01*
X215075102Y-38880472D01*
X214927143Y-38941759D01*
X214770076Y-38973001D01*
X214609926Y-38973001D01*
X214452859Y-38941759D01*
X214304900Y-38880472D01*
X214171746Y-38791502D01*
X214058500Y-38678256D01*
X213969530Y-38545102D01*
X213908243Y-38397143D01*
X213877001Y-38240076D01*
X213877001Y-38079926D01*
X213908243Y-37922859D01*
X213969530Y-37774900D01*
X214058500Y-37641746D01*
X214171746Y-37528500D01*
X214304900Y-37439530D01*
X214452859Y-37378243D01*
X214609926Y-37347001D01*
X214770076Y-37347001D01*
X214927143Y-37378243D01*
X214927143Y-37378243D01*
G37*
G36*
X186137421Y-36629143D02*
G01*
X186269557Y-36669227D01*
X186269559Y-36669228D01*
X186391339Y-36734320D01*
X186391341Y-36734321D01*
X186391340Y-36734321D01*
X186498080Y-36821920D01*
X186585679Y-36928660D01*
X186650773Y-37050443D01*
X186690857Y-37182579D01*
X186704391Y-37320000D01*
X186690857Y-37457421D01*
X186650773Y-37589557D01*
X186650772Y-37589559D01*
X186585680Y-37711339D01*
X186498080Y-37818080D01*
X186391339Y-37905680D01*
X186269559Y-37970772D01*
X186269557Y-37970773D01*
X186137421Y-38010857D01*
X186034432Y-38021000D01*
X185265568Y-38021000D01*
X185162579Y-38010857D01*
X185030443Y-37970773D01*
X185030441Y-37970772D01*
X184908661Y-37905680D01*
X184801920Y-37818080D01*
X184714320Y-37711339D01*
X184649228Y-37589559D01*
X184649227Y-37589557D01*
X184609143Y-37457421D01*
X184595609Y-37320000D01*
X184609143Y-37182579D01*
X184649227Y-37050443D01*
X184714321Y-36928660D01*
X184801920Y-36821920D01*
X184908660Y-36734321D01*
X184908659Y-36734321D01*
X184908661Y-36734320D01*
X185030441Y-36669228D01*
X185030443Y-36669227D01*
X185162579Y-36629143D01*
X185265568Y-36619000D01*
X186034432Y-36619000D01*
X186137421Y-36629143D01*
X186137421Y-36629143D01*
G37*
G36*
X214927143Y-34838243D02*
G01*
X215075102Y-34899530D01*
X215208256Y-34988500D01*
X215321502Y-35101746D01*
X215410472Y-35234900D01*
X215471759Y-35382859D01*
X215503001Y-35539926D01*
X215503001Y-35700076D01*
X215471759Y-35857143D01*
X215410472Y-36005102D01*
X215321502Y-36138256D01*
X215208256Y-36251502D01*
X215075102Y-36340472D01*
X214927143Y-36401759D01*
X214770076Y-36433001D01*
X214609926Y-36433001D01*
X214452859Y-36401759D01*
X214304900Y-36340472D01*
X214171746Y-36251502D01*
X214058500Y-36138256D01*
X213969530Y-36005102D01*
X213908243Y-35857143D01*
X213877001Y-35700076D01*
X213877001Y-35539926D01*
X213908243Y-35382859D01*
X213969530Y-35234900D01*
X214058500Y-35101746D01*
X214171746Y-34988500D01*
X214304900Y-34899530D01*
X214452859Y-34838243D01*
X214609926Y-34807001D01*
X214770076Y-34807001D01*
X214927143Y-34838243D01*
X214927143Y-34838243D01*
G37*
G36*
X199687143Y-34838243D02*
G01*
X199835102Y-34899530D01*
X199968256Y-34988500D01*
X200081502Y-35101746D01*
X200170472Y-35234900D01*
X200231759Y-35382859D01*
X200263001Y-35539926D01*
X200263001Y-35700076D01*
X200231759Y-35857143D01*
X200170472Y-36005102D01*
X200081502Y-36138256D01*
X199968256Y-36251502D01*
X199835102Y-36340472D01*
X199687143Y-36401759D01*
X199530076Y-36433001D01*
X199369926Y-36433001D01*
X199212859Y-36401759D01*
X199064900Y-36340472D01*
X198931746Y-36251502D01*
X198818500Y-36138256D01*
X198729530Y-36005102D01*
X198668243Y-35857143D01*
X198637001Y-35700076D01*
X198637001Y-35539926D01*
X198668243Y-35382859D01*
X198729530Y-35234900D01*
X198818500Y-35101746D01*
X198931746Y-34988500D01*
X199064900Y-34899530D01*
X199212859Y-34838243D01*
X199369926Y-34807001D01*
X199530076Y-34807001D01*
X199687143Y-34838243D01*
X199687143Y-34838243D01*
G37*
G36*
X186545781Y-34623295D02*
G01*
X186581816Y-34634227D01*
X186615024Y-34651977D01*
X186644134Y-34675866D01*
X186668023Y-34704976D01*
X186685773Y-34738184D01*
X186696705Y-34774219D01*
X186701000Y-34817831D01*
X186701000Y-35822169D01*
X186696705Y-35865781D01*
X186685773Y-35901816D01*
X186668023Y-35935024D01*
X186644134Y-35964134D01*
X186615024Y-35988023D01*
X186581816Y-36005773D01*
X186545781Y-36016705D01*
X186502169Y-36021000D01*
X184797831Y-36021000D01*
X184754219Y-36016705D01*
X184718184Y-36005773D01*
X184684976Y-35988023D01*
X184655866Y-35964134D01*
X184631977Y-35935024D01*
X184614227Y-35901816D01*
X184603295Y-35865781D01*
X184599000Y-35822169D01*
X184599000Y-34817831D01*
X184603295Y-34774219D01*
X184614227Y-34738184D01*
X184631977Y-34704976D01*
X184655866Y-34675866D01*
X184684976Y-34651977D01*
X184718184Y-34634227D01*
X184754219Y-34623295D01*
X184797831Y-34619000D01*
X186502169Y-34619000D01*
X186545781Y-34623295D01*
X186545781Y-34623295D01*
G37*
G36*
X199687143Y-32298243D02*
G01*
X199835102Y-32359530D01*
X199968256Y-32448500D01*
X200081502Y-32561746D01*
X200170472Y-32694900D01*
X200231759Y-32842859D01*
X200263001Y-32999926D01*
X200263001Y-33160076D01*
X200231759Y-33317143D01*
X200170472Y-33465102D01*
X200081502Y-33598256D01*
X199968256Y-33711502D01*
X199835102Y-33800472D01*
X199687143Y-33861759D01*
X199530076Y-33893001D01*
X199369926Y-33893001D01*
X199212859Y-33861759D01*
X199064900Y-33800472D01*
X198931746Y-33711502D01*
X198818500Y-33598256D01*
X198729530Y-33465102D01*
X198668243Y-33317143D01*
X198637001Y-33160076D01*
X198637001Y-32999926D01*
X198668243Y-32842859D01*
X198729530Y-32694900D01*
X198818500Y-32561746D01*
X198931746Y-32448500D01*
X199064900Y-32359530D01*
X199212859Y-32298243D01*
X199369926Y-32267001D01*
X199530076Y-32267001D01*
X199687143Y-32298243D01*
X199687143Y-32298243D01*
G37*
G36*
X214927143Y-32298243D02*
G01*
X215075102Y-32359530D01*
X215208256Y-32448500D01*
X215321502Y-32561746D01*
X215410472Y-32694900D01*
X215471759Y-32842859D01*
X215503001Y-32999926D01*
X215503001Y-33160076D01*
X215471759Y-33317143D01*
X215410472Y-33465102D01*
X215321502Y-33598256D01*
X215208256Y-33711502D01*
X215075102Y-33800472D01*
X214927143Y-33861759D01*
X214770076Y-33893001D01*
X214609926Y-33893001D01*
X214452859Y-33861759D01*
X214304900Y-33800472D01*
X214171746Y-33711502D01*
X214058500Y-33598256D01*
X213969530Y-33465102D01*
X213908243Y-33317143D01*
X213877001Y-33160076D01*
X213877001Y-32999926D01*
X213908243Y-32842859D01*
X213969530Y-32694900D01*
X214058500Y-32561746D01*
X214171746Y-32448500D01*
X214304900Y-32359530D01*
X214452859Y-32298243D01*
X214609926Y-32267001D01*
X214770076Y-32267001D01*
X214927143Y-32298243D01*
X214927143Y-32298243D01*
G37*
G36*
X199687143Y-29758243D02*
G01*
X199835102Y-29819530D01*
X199968256Y-29908500D01*
X200081502Y-30021746D01*
X200170472Y-30154900D01*
X200231759Y-30302859D01*
X200263001Y-30459926D01*
X200263001Y-30620076D01*
X200231759Y-30777143D01*
X200170472Y-30925102D01*
X200081502Y-31058256D01*
X199968256Y-31171502D01*
X199835102Y-31260472D01*
X199687143Y-31321759D01*
X199530076Y-31353001D01*
X199369926Y-31353001D01*
X199212859Y-31321759D01*
X199064900Y-31260472D01*
X198931746Y-31171502D01*
X198818500Y-31058256D01*
X198729530Y-30925102D01*
X198668243Y-30777143D01*
X198637001Y-30620076D01*
X198637001Y-30459926D01*
X198668243Y-30302859D01*
X198729530Y-30154900D01*
X198818500Y-30021746D01*
X198931746Y-29908500D01*
X199064900Y-29819530D01*
X199212859Y-29758243D01*
X199369926Y-29727001D01*
X199530076Y-29727001D01*
X199687143Y-29758243D01*
X199687143Y-29758243D01*
G37*
G36*
X214927143Y-29758243D02*
G01*
X215075102Y-29819530D01*
X215208256Y-29908500D01*
X215321502Y-30021746D01*
X215410472Y-30154900D01*
X215471759Y-30302859D01*
X215503001Y-30459926D01*
X215503001Y-30620076D01*
X215471759Y-30777143D01*
X215410472Y-30925102D01*
X215321502Y-31058256D01*
X215208256Y-31171502D01*
X215075102Y-31260472D01*
X214927143Y-31321759D01*
X214770076Y-31353001D01*
X214609926Y-31353001D01*
X214452859Y-31321759D01*
X214304900Y-31260472D01*
X214171746Y-31171502D01*
X214058500Y-31058256D01*
X213969530Y-30925102D01*
X213908243Y-30777143D01*
X213877001Y-30620076D01*
X213877001Y-30459926D01*
X213908243Y-30302859D01*
X213969530Y-30154900D01*
X214058500Y-30021746D01*
X214171746Y-29908500D01*
X214304900Y-29819530D01*
X214452859Y-29758243D01*
X214609926Y-29727001D01*
X214770076Y-29727001D01*
X214927143Y-29758243D01*
X214927143Y-29758243D01*
G37*
G36*
X184332597Y-28608056D02*
G01*
X184446521Y-28655245D01*
X184446522Y-28655246D01*
X184549052Y-28723754D01*
X184636246Y-28810948D01*
X184670733Y-28862562D01*
X184704755Y-28913479D01*
X184751944Y-29027403D01*
X184776000Y-29148343D01*
X184776000Y-29271657D01*
X184751944Y-29392597D01*
X184704755Y-29506521D01*
X184704754Y-29506522D01*
X184636246Y-29609052D01*
X184549052Y-29696246D01*
X184503024Y-29727001D01*
X184446521Y-29764755D01*
X184332597Y-29811944D01*
X184211657Y-29836000D01*
X184088343Y-29836000D01*
X183967403Y-29811944D01*
X183853479Y-29764755D01*
X183796976Y-29727001D01*
X183750948Y-29696246D01*
X183663754Y-29609052D01*
X183595246Y-29506522D01*
X183595245Y-29506521D01*
X183548056Y-29392597D01*
X183524000Y-29271657D01*
X183524000Y-29148343D01*
X183548056Y-29027403D01*
X183595245Y-28913479D01*
X183629267Y-28862562D01*
X183663754Y-28810948D01*
X183750948Y-28723754D01*
X183853478Y-28655246D01*
X183853479Y-28655245D01*
X183967403Y-28608056D01*
X184088343Y-28584000D01*
X184211657Y-28584000D01*
X184332597Y-28608056D01*
X184332597Y-28608056D01*
G37*
G36*
X199687143Y-27218243D02*
G01*
X199835102Y-27279530D01*
X199968256Y-27368500D01*
X200081502Y-27481746D01*
X200170472Y-27614900D01*
X200231759Y-27762859D01*
X200263001Y-27919926D01*
X200263001Y-28080076D01*
X200231759Y-28237143D01*
X200170472Y-28385102D01*
X200081502Y-28518256D01*
X199968256Y-28631502D01*
X199835102Y-28720472D01*
X199687143Y-28781759D01*
X199530076Y-28813001D01*
X199369926Y-28813001D01*
X199212859Y-28781759D01*
X199064900Y-28720472D01*
X198931746Y-28631502D01*
X198818500Y-28518256D01*
X198729530Y-28385102D01*
X198668243Y-28237143D01*
X198637001Y-28080076D01*
X198637001Y-27919926D01*
X198668243Y-27762859D01*
X198729530Y-27614900D01*
X198818500Y-27481746D01*
X198931746Y-27368500D01*
X199064900Y-27279530D01*
X199212859Y-27218243D01*
X199369926Y-27187001D01*
X199530076Y-27187001D01*
X199687143Y-27218243D01*
X199687143Y-27218243D01*
G37*
G36*
X214927143Y-27218243D02*
G01*
X215075102Y-27279530D01*
X215208256Y-27368500D01*
X215321502Y-27481746D01*
X215410472Y-27614900D01*
X215471759Y-27762859D01*
X215503001Y-27919926D01*
X215503001Y-28080076D01*
X215471759Y-28237143D01*
X215410472Y-28385102D01*
X215321502Y-28518256D01*
X215208256Y-28631502D01*
X215075102Y-28720472D01*
X214927143Y-28781759D01*
X214770076Y-28813001D01*
X214609926Y-28813001D01*
X214452859Y-28781759D01*
X214304900Y-28720472D01*
X214171746Y-28631502D01*
X214058500Y-28518256D01*
X213969530Y-28385102D01*
X213908243Y-28237143D01*
X213877001Y-28080076D01*
X213877001Y-27919926D01*
X213908243Y-27762859D01*
X213969530Y-27614900D01*
X214058500Y-27481746D01*
X214171746Y-27368500D01*
X214304900Y-27279530D01*
X214452859Y-27218243D01*
X214609926Y-27187001D01*
X214770076Y-27187001D01*
X214927143Y-27218243D01*
X214927143Y-27218243D01*
G37*
G36*
X186137421Y-26469143D02*
G01*
X186269557Y-26509227D01*
X186269559Y-26509228D01*
X186391339Y-26574320D01*
X186391341Y-26574321D01*
X186391340Y-26574321D01*
X186498080Y-26661920D01*
X186585679Y-26768660D01*
X186650773Y-26890443D01*
X186690857Y-27022579D01*
X186704391Y-27160000D01*
X186690857Y-27297421D01*
X186650773Y-27429557D01*
X186650772Y-27429559D01*
X186585680Y-27551339D01*
X186498080Y-27658080D01*
X186391339Y-27745680D01*
X186269559Y-27810772D01*
X186269557Y-27810773D01*
X186137421Y-27850857D01*
X186034432Y-27861000D01*
X185265568Y-27861000D01*
X185162579Y-27850857D01*
X185030443Y-27810773D01*
X185030441Y-27810772D01*
X184908661Y-27745680D01*
X184801920Y-27658080D01*
X184714320Y-27551339D01*
X184649228Y-27429559D01*
X184649227Y-27429557D01*
X184609143Y-27297421D01*
X184595609Y-27160000D01*
X184609143Y-27022579D01*
X184649227Y-26890443D01*
X184714321Y-26768660D01*
X184801920Y-26661920D01*
X184908660Y-26574321D01*
X184908659Y-26574321D01*
X184908661Y-26574320D01*
X185030441Y-26509228D01*
X185030443Y-26509227D01*
X185162579Y-26469143D01*
X185265568Y-26459000D01*
X186034432Y-26459000D01*
X186137421Y-26469143D01*
X186137421Y-26469143D01*
G37*
G36*
X193150442Y-24505518D02*
G01*
X193216627Y-24512037D01*
X193386466Y-24563557D01*
X193542991Y-24647222D01*
X193560900Y-24661920D01*
X193680186Y-24759814D01*
X193763448Y-24861271D01*
X193792778Y-24897009D01*
X193876443Y-25053534D01*
X193927963Y-25223373D01*
X193945359Y-25400000D01*
X193927963Y-25576627D01*
X193876443Y-25746466D01*
X193792778Y-25902991D01*
X193763448Y-25938729D01*
X193680186Y-26040186D01*
X193578729Y-26123448D01*
X193542991Y-26152778D01*
X193386466Y-26236443D01*
X193216627Y-26287963D01*
X193150443Y-26294481D01*
X193084260Y-26301000D01*
X192995740Y-26301000D01*
X192929557Y-26294481D01*
X192863373Y-26287963D01*
X192693534Y-26236443D01*
X192537009Y-26152778D01*
X192501271Y-26123448D01*
X192399814Y-26040186D01*
X192316552Y-25938729D01*
X192287222Y-25902991D01*
X192203557Y-25746466D01*
X192152037Y-25576627D01*
X192134641Y-25400000D01*
X192152037Y-25223373D01*
X192203557Y-25053534D01*
X192287222Y-24897009D01*
X192316552Y-24861271D01*
X192399814Y-24759814D01*
X192519100Y-24661920D01*
X192537009Y-24647222D01*
X192693534Y-24563557D01*
X192863373Y-24512037D01*
X192929557Y-24505519D01*
X192995740Y-24499000D01*
X193084260Y-24499000D01*
X193150442Y-24505518D01*
X193150442Y-24505518D01*
G37*
G36*
X199687143Y-24678243D02*
G01*
X199835102Y-24739530D01*
X199968256Y-24828500D01*
X200081502Y-24941746D01*
X200170472Y-25074900D01*
X200231759Y-25222859D01*
X200263001Y-25379926D01*
X200263001Y-25540076D01*
X200231759Y-25697143D01*
X200170472Y-25845102D01*
X200081502Y-25978256D01*
X199968256Y-26091502D01*
X199835102Y-26180472D01*
X199687143Y-26241759D01*
X199530076Y-26273001D01*
X199369926Y-26273001D01*
X199212859Y-26241759D01*
X199064900Y-26180472D01*
X198931746Y-26091502D01*
X198818500Y-25978256D01*
X198729530Y-25845102D01*
X198668243Y-25697143D01*
X198637001Y-25540076D01*
X198637001Y-25379926D01*
X198668243Y-25222859D01*
X198729530Y-25074900D01*
X198818500Y-24941746D01*
X198931746Y-24828500D01*
X199064900Y-24739530D01*
X199212859Y-24678243D01*
X199369926Y-24647001D01*
X199530076Y-24647001D01*
X199687143Y-24678243D01*
X199687143Y-24678243D01*
G37*
G36*
X214927143Y-24678243D02*
G01*
X215075102Y-24739530D01*
X215208256Y-24828500D01*
X215321502Y-24941746D01*
X215410472Y-25074900D01*
X215471759Y-25222859D01*
X215503001Y-25379926D01*
X215503001Y-25540076D01*
X215471759Y-25697143D01*
X215410472Y-25845102D01*
X215321502Y-25978256D01*
X215208256Y-26091502D01*
X215075102Y-26180472D01*
X214927143Y-26241759D01*
X214770076Y-26273001D01*
X214609926Y-26273001D01*
X214452859Y-26241759D01*
X214304900Y-26180472D01*
X214171746Y-26091502D01*
X214058500Y-25978256D01*
X213969530Y-25845102D01*
X213908243Y-25697143D01*
X213877001Y-25540076D01*
X213877001Y-25379926D01*
X213908243Y-25222859D01*
X213969530Y-25074900D01*
X214058500Y-24941746D01*
X214171746Y-24828500D01*
X214304900Y-24739530D01*
X214452859Y-24678243D01*
X214609926Y-24647001D01*
X214770076Y-24647001D01*
X214927143Y-24678243D01*
X214927143Y-24678243D01*
G37*
G36*
X186137421Y-24469143D02*
G01*
X186269557Y-24509227D01*
X186269559Y-24509228D01*
X186391339Y-24574320D01*
X186391341Y-24574321D01*
X186391340Y-24574321D01*
X186498080Y-24661920D01*
X186585679Y-24768660D01*
X186650773Y-24890443D01*
X186690857Y-25022579D01*
X186704391Y-25160000D01*
X186690857Y-25297421D01*
X186665828Y-25379927D01*
X186650772Y-25429559D01*
X186585680Y-25551339D01*
X186498080Y-25658080D01*
X186391339Y-25745680D01*
X186269559Y-25810772D01*
X186269557Y-25810773D01*
X186137421Y-25850857D01*
X186034432Y-25861000D01*
X185265568Y-25861000D01*
X185162579Y-25850857D01*
X185030443Y-25810773D01*
X185030441Y-25810772D01*
X184908661Y-25745680D01*
X184801920Y-25658080D01*
X184714320Y-25551339D01*
X184649228Y-25429559D01*
X184634172Y-25379927D01*
X184609143Y-25297421D01*
X184595609Y-25160000D01*
X184609143Y-25022579D01*
X184649227Y-24890443D01*
X184714321Y-24768660D01*
X184801920Y-24661920D01*
X184908660Y-24574321D01*
X184908659Y-24574321D01*
X184908661Y-24574320D01*
X185030441Y-24509228D01*
X185030443Y-24509227D01*
X185162579Y-24469143D01*
X185265568Y-24459000D01*
X186034432Y-24459000D01*
X186137421Y-24469143D01*
X186137421Y-24469143D01*
G37*
G36*
X186137421Y-22469143D02*
G01*
X186269557Y-22509227D01*
X186269559Y-22509228D01*
X186391339Y-22574320D01*
X186391341Y-22574321D01*
X186391340Y-22574321D01*
X186498080Y-22661920D01*
X186585679Y-22768660D01*
X186650773Y-22890443D01*
X186690857Y-23022579D01*
X186704391Y-23160000D01*
X186690857Y-23297421D01*
X186650773Y-23429557D01*
X186650772Y-23429559D01*
X186585680Y-23551339D01*
X186498080Y-23658080D01*
X186391339Y-23745680D01*
X186269559Y-23810772D01*
X186269557Y-23810773D01*
X186137421Y-23850857D01*
X186034432Y-23861000D01*
X185265568Y-23861000D01*
X185162579Y-23850857D01*
X185030443Y-23810773D01*
X185030441Y-23810772D01*
X184908661Y-23745680D01*
X184801920Y-23658080D01*
X184714320Y-23551339D01*
X184649228Y-23429559D01*
X184649227Y-23429557D01*
X184609143Y-23297421D01*
X184595609Y-23160000D01*
X184609143Y-23022579D01*
X184649227Y-22890443D01*
X184714321Y-22768660D01*
X184801920Y-22661920D01*
X184908660Y-22574321D01*
X184908659Y-22574321D01*
X184908661Y-22574320D01*
X185030441Y-22509228D01*
X185030443Y-22509227D01*
X185162579Y-22469143D01*
X185265568Y-22459000D01*
X186034432Y-22459000D01*
X186137421Y-22469143D01*
X186137421Y-22469143D01*
G37*
G36*
X193941000Y-23761000D02*
G01*
X192139000Y-23761000D01*
X192139000Y-21959000D01*
X193941000Y-21959000D01*
X193941000Y-23761000D01*
X193941000Y-23761000D01*
G37*
G36*
X214927143Y-22138243D02*
G01*
X215075102Y-22199530D01*
X215208256Y-22288500D01*
X215321502Y-22401746D01*
X215410472Y-22534900D01*
X215471759Y-22682859D01*
X215503001Y-22839926D01*
X215503001Y-23000076D01*
X215471759Y-23157143D01*
X215410472Y-23305102D01*
X215321502Y-23438256D01*
X215208256Y-23551502D01*
X215075102Y-23640472D01*
X214927143Y-23701759D01*
X214770076Y-23733001D01*
X214609926Y-23733001D01*
X214452859Y-23701759D01*
X214304900Y-23640472D01*
X214171746Y-23551502D01*
X214058500Y-23438256D01*
X213969530Y-23305102D01*
X213908243Y-23157143D01*
X213877001Y-23000076D01*
X213877001Y-22839926D01*
X213908243Y-22682859D01*
X213969530Y-22534900D01*
X214058500Y-22401746D01*
X214171746Y-22288500D01*
X214304900Y-22199530D01*
X214452859Y-22138243D01*
X214609926Y-22107001D01*
X214770076Y-22107001D01*
X214927143Y-22138243D01*
X214927143Y-22138243D01*
G37*
G36*
X199687143Y-22138243D02*
G01*
X199835102Y-22199530D01*
X199968256Y-22288500D01*
X200081502Y-22401746D01*
X200170472Y-22534900D01*
X200231759Y-22682859D01*
X200263001Y-22839926D01*
X200263001Y-23000076D01*
X200231759Y-23157143D01*
X200170472Y-23305102D01*
X200081502Y-23438256D01*
X199968256Y-23551502D01*
X199835102Y-23640472D01*
X199687143Y-23701759D01*
X199530076Y-23733001D01*
X199369926Y-23733001D01*
X199212859Y-23701759D01*
X199064900Y-23640472D01*
X198931746Y-23551502D01*
X198818500Y-23438256D01*
X198729530Y-23305102D01*
X198668243Y-23157143D01*
X198637001Y-23000076D01*
X198637001Y-22839926D01*
X198668243Y-22682859D01*
X198729530Y-22534900D01*
X198818500Y-22401746D01*
X198931746Y-22288500D01*
X199064900Y-22199530D01*
X199212859Y-22138243D01*
X199369926Y-22107001D01*
X199530076Y-22107001D01*
X199687143Y-22138243D01*
X199687143Y-22138243D01*
G37*
G36*
X186545781Y-20463295D02*
G01*
X186581816Y-20474227D01*
X186615024Y-20491977D01*
X186644134Y-20515866D01*
X186668023Y-20544976D01*
X186685773Y-20578184D01*
X186696705Y-20614219D01*
X186701000Y-20657831D01*
X186701000Y-21662169D01*
X186696705Y-21705781D01*
X186685773Y-21741816D01*
X186668023Y-21775024D01*
X186644134Y-21804134D01*
X186615024Y-21828023D01*
X186581816Y-21845773D01*
X186545781Y-21856705D01*
X186502169Y-21861000D01*
X184797831Y-21861000D01*
X184754219Y-21856705D01*
X184718184Y-21845773D01*
X184684976Y-21828023D01*
X184655866Y-21804134D01*
X184631977Y-21775024D01*
X184614227Y-21741816D01*
X184603295Y-21705781D01*
X184599000Y-21662169D01*
X184599000Y-20657831D01*
X184603295Y-20614219D01*
X184614227Y-20578184D01*
X184631977Y-20544976D01*
X184655866Y-20515866D01*
X184684976Y-20491977D01*
X184718184Y-20474227D01*
X184754219Y-20463295D01*
X184797831Y-20459000D01*
X186502169Y-20459000D01*
X186545781Y-20463295D01*
X186545781Y-20463295D01*
G37*
G36*
X214927143Y-19598243D02*
G01*
X215075102Y-19659530D01*
X215208256Y-19748500D01*
X215321502Y-19861746D01*
X215410472Y-19994900D01*
X215471759Y-20142859D01*
X215503001Y-20299926D01*
X215503001Y-20460076D01*
X215471759Y-20617143D01*
X215410472Y-20765102D01*
X215321502Y-20898256D01*
X215208256Y-21011502D01*
X215075102Y-21100472D01*
X214927143Y-21161759D01*
X214770076Y-21193001D01*
X214609926Y-21193001D01*
X214452859Y-21161759D01*
X214304900Y-21100472D01*
X214171746Y-21011502D01*
X214058500Y-20898256D01*
X213969530Y-20765102D01*
X213908243Y-20617143D01*
X213877001Y-20460076D01*
X213877001Y-20299926D01*
X213908243Y-20142859D01*
X213969530Y-19994900D01*
X214058500Y-19861746D01*
X214171746Y-19748500D01*
X214304900Y-19659530D01*
X214452859Y-19598243D01*
X214609926Y-19567001D01*
X214770076Y-19567001D01*
X214927143Y-19598243D01*
X214927143Y-19598243D01*
G37*
G36*
X199687143Y-19598243D02*
G01*
X199835102Y-19659530D01*
X199968256Y-19748500D01*
X200081502Y-19861746D01*
X200170472Y-19994900D01*
X200231759Y-20142859D01*
X200263001Y-20299926D01*
X200263001Y-20460076D01*
X200231759Y-20617143D01*
X200170472Y-20765102D01*
X200081502Y-20898256D01*
X199968256Y-21011502D01*
X199835102Y-21100472D01*
X199687143Y-21161759D01*
X199530076Y-21193001D01*
X199369926Y-21193001D01*
X199212859Y-21161759D01*
X199064900Y-21100472D01*
X198931746Y-21011502D01*
X198818500Y-20898256D01*
X198729530Y-20765102D01*
X198668243Y-20617143D01*
X198637001Y-20460076D01*
X198637001Y-20299926D01*
X198668243Y-20142859D01*
X198729530Y-19994900D01*
X198818500Y-19861746D01*
X198931746Y-19748500D01*
X199064900Y-19659530D01*
X199212859Y-19598243D01*
X199369926Y-19567001D01*
X199530076Y-19567001D01*
X199687143Y-19598243D01*
X199687143Y-19598243D01*
G37*
G36*
X214927143Y-17058243D02*
G01*
X215075102Y-17119530D01*
X215208256Y-17208500D01*
X215321502Y-17321746D01*
X215410472Y-17454900D01*
X215471759Y-17602859D01*
X215503001Y-17759926D01*
X215503001Y-17920076D01*
X215471759Y-18077143D01*
X215410472Y-18225102D01*
X215321502Y-18358256D01*
X215208256Y-18471502D01*
X215075102Y-18560472D01*
X214927143Y-18621759D01*
X214770076Y-18653001D01*
X214609926Y-18653001D01*
X214452859Y-18621759D01*
X214304900Y-18560472D01*
X214171746Y-18471502D01*
X214058500Y-18358256D01*
X213969530Y-18225102D01*
X213908243Y-18077143D01*
X213877001Y-17920076D01*
X213877001Y-17759926D01*
X213908243Y-17602859D01*
X213969530Y-17454900D01*
X214058500Y-17321746D01*
X214171746Y-17208500D01*
X214304900Y-17119530D01*
X214452859Y-17058243D01*
X214609926Y-17027001D01*
X214770076Y-17027001D01*
X214927143Y-17058243D01*
X214927143Y-17058243D01*
G37*
G36*
X199687143Y-17058243D02*
G01*
X199835102Y-17119530D01*
X199968256Y-17208500D01*
X200081502Y-17321746D01*
X200170472Y-17454900D01*
X200231759Y-17602859D01*
X200263001Y-17759926D01*
X200263001Y-17920076D01*
X200231759Y-18077143D01*
X200170472Y-18225102D01*
X200081502Y-18358256D01*
X199968256Y-18471502D01*
X199835102Y-18560472D01*
X199687143Y-18621759D01*
X199530076Y-18653001D01*
X199369926Y-18653001D01*
X199212859Y-18621759D01*
X199064900Y-18560472D01*
X198931746Y-18471502D01*
X198818500Y-18358256D01*
X198729530Y-18225102D01*
X198668243Y-18077143D01*
X198637001Y-17920076D01*
X198637001Y-17759926D01*
X198668243Y-17602859D01*
X198729530Y-17454900D01*
X198818500Y-17321746D01*
X198931746Y-17208500D01*
X199064900Y-17119530D01*
X199212859Y-17058243D01*
X199369926Y-17027001D01*
X199530076Y-17027001D01*
X199687143Y-17058243D01*
X199687143Y-17058243D01*
G37*
G36*
X199687143Y-14518243D02*
G01*
X199835102Y-14579530D01*
X199968256Y-14668500D01*
X200081502Y-14781746D01*
X200170472Y-14914900D01*
X200231759Y-15062859D01*
X200263001Y-15219926D01*
X200263001Y-15380076D01*
X200231759Y-15537143D01*
X200170472Y-15685102D01*
X200081502Y-15818256D01*
X199968256Y-15931502D01*
X199835102Y-16020472D01*
X199687143Y-16081759D01*
X199530076Y-16113001D01*
X199369926Y-16113001D01*
X199212859Y-16081759D01*
X199064900Y-16020472D01*
X198931746Y-15931502D01*
X198818500Y-15818256D01*
X198729530Y-15685102D01*
X198668243Y-15537143D01*
X198637001Y-15380076D01*
X198637001Y-15219926D01*
X198668243Y-15062859D01*
X198729530Y-14914900D01*
X198818500Y-14781746D01*
X198931746Y-14668500D01*
X199064900Y-14579530D01*
X199212859Y-14518243D01*
X199369926Y-14487001D01*
X199530076Y-14487001D01*
X199687143Y-14518243D01*
X199687143Y-14518243D01*
G37*
G36*
X214927143Y-14518243D02*
G01*
X215075102Y-14579530D01*
X215208256Y-14668500D01*
X215321502Y-14781746D01*
X215410472Y-14914900D01*
X215471759Y-15062859D01*
X215503001Y-15219926D01*
X215503001Y-15380076D01*
X215471759Y-15537143D01*
X215410472Y-15685102D01*
X215321502Y-15818256D01*
X215208256Y-15931502D01*
X215075102Y-16020472D01*
X214927143Y-16081759D01*
X214770076Y-16113001D01*
X214609926Y-16113001D01*
X214452859Y-16081759D01*
X214304900Y-16020472D01*
X214171746Y-15931502D01*
X214058500Y-15818256D01*
X213969530Y-15685102D01*
X213908243Y-15537143D01*
X213877001Y-15380076D01*
X213877001Y-15219926D01*
X213908243Y-15062859D01*
X213969530Y-14914900D01*
X214058500Y-14781746D01*
X214171746Y-14668500D01*
X214304900Y-14579530D01*
X214452859Y-14518243D01*
X214609926Y-14487001D01*
X214770076Y-14487001D01*
X214927143Y-14518243D01*
X214927143Y-14518243D01*
G37*
G36*
X184332597Y-13368056D02*
G01*
X184446521Y-13415245D01*
X184446522Y-13415246D01*
X184549052Y-13483754D01*
X184636246Y-13570948D01*
X184647615Y-13587963D01*
X184704755Y-13673479D01*
X184751944Y-13787403D01*
X184776000Y-13908343D01*
X184776000Y-14031657D01*
X184751944Y-14152597D01*
X184704755Y-14266521D01*
X184704754Y-14266522D01*
X184636246Y-14369052D01*
X184549052Y-14456246D01*
X184503024Y-14487001D01*
X184446521Y-14524755D01*
X184332597Y-14571944D01*
X184211657Y-14596000D01*
X184088343Y-14596000D01*
X183967403Y-14571944D01*
X183853479Y-14524755D01*
X183796976Y-14487001D01*
X183750948Y-14456246D01*
X183663754Y-14369052D01*
X183595246Y-14266522D01*
X183595245Y-14266521D01*
X183548056Y-14152597D01*
X183524000Y-14031657D01*
X183524000Y-13908343D01*
X183548056Y-13787403D01*
X183595245Y-13673479D01*
X183652385Y-13587963D01*
X183663754Y-13570948D01*
X183750948Y-13483754D01*
X183853478Y-13415246D01*
X183853479Y-13415245D01*
X183967403Y-13368056D01*
X184088343Y-13344000D01*
X184211657Y-13344000D01*
X184332597Y-13368056D01*
X184332597Y-13368056D01*
G37*
G36*
X193150443Y-11805519D02*
G01*
X193216627Y-11812037D01*
X193386466Y-11863557D01*
X193542991Y-11947222D01*
X193578729Y-11976552D01*
X193680186Y-12059814D01*
X193763448Y-12161271D01*
X193792778Y-12197009D01*
X193876443Y-12353534D01*
X193927963Y-12523373D01*
X193945359Y-12700000D01*
X193927963Y-12876627D01*
X193876443Y-13046466D01*
X193792778Y-13202991D01*
X193763448Y-13238729D01*
X193680186Y-13340186D01*
X193588725Y-13415245D01*
X193542991Y-13452778D01*
X193386466Y-13536443D01*
X193216627Y-13587963D01*
X193150443Y-13594481D01*
X193084260Y-13601000D01*
X192995740Y-13601000D01*
X192929557Y-13594481D01*
X192863373Y-13587963D01*
X192693534Y-13536443D01*
X192537009Y-13452778D01*
X192491275Y-13415245D01*
X192399814Y-13340186D01*
X192316552Y-13238729D01*
X192287222Y-13202991D01*
X192203557Y-13046466D01*
X192152037Y-12876627D01*
X192134641Y-12700000D01*
X192152037Y-12523373D01*
X192203557Y-12353534D01*
X192287222Y-12197009D01*
X192316552Y-12161271D01*
X192399814Y-12059814D01*
X192501271Y-11976552D01*
X192537009Y-11947222D01*
X192693534Y-11863557D01*
X192863373Y-11812037D01*
X192929557Y-11805519D01*
X192995740Y-11799000D01*
X193084260Y-11799000D01*
X193150443Y-11805519D01*
X193150443Y-11805519D01*
G37*
G36*
X199687143Y-11978243D02*
G01*
X199835102Y-12039530D01*
X199968256Y-12128500D01*
X200081502Y-12241746D01*
X200170472Y-12374900D01*
X200231759Y-12522859D01*
X200263001Y-12679926D01*
X200263001Y-12840076D01*
X200231759Y-12997143D01*
X200170472Y-13145102D01*
X200081502Y-13278256D01*
X199968256Y-13391502D01*
X199835102Y-13480472D01*
X199687143Y-13541759D01*
X199530076Y-13573001D01*
X199369926Y-13573001D01*
X199212859Y-13541759D01*
X199064900Y-13480472D01*
X198931746Y-13391502D01*
X198818500Y-13278256D01*
X198729530Y-13145102D01*
X198668243Y-12997143D01*
X198637001Y-12840076D01*
X198637001Y-12679926D01*
X198668243Y-12522859D01*
X198729530Y-12374900D01*
X198818500Y-12241746D01*
X198931746Y-12128500D01*
X199064900Y-12039530D01*
X199212859Y-11978243D01*
X199369926Y-11947001D01*
X199530076Y-11947001D01*
X199687143Y-11978243D01*
X199687143Y-11978243D01*
G37*
G36*
X214927143Y-11978243D02*
G01*
X215075102Y-12039530D01*
X215208256Y-12128500D01*
X215321502Y-12241746D01*
X215410472Y-12374900D01*
X215471759Y-12522859D01*
X215503001Y-12679926D01*
X215503001Y-12840076D01*
X215471759Y-12997143D01*
X215410472Y-13145102D01*
X215321502Y-13278256D01*
X215208256Y-13391502D01*
X215075102Y-13480472D01*
X214927143Y-13541759D01*
X214770076Y-13573001D01*
X214609926Y-13573001D01*
X214452859Y-13541759D01*
X214304900Y-13480472D01*
X214171746Y-13391502D01*
X214058500Y-13278256D01*
X213969530Y-13145102D01*
X213908243Y-12997143D01*
X213877001Y-12840076D01*
X213877001Y-12679926D01*
X213908243Y-12522859D01*
X213969530Y-12374900D01*
X214058500Y-12241746D01*
X214171746Y-12128500D01*
X214304900Y-12039530D01*
X214452859Y-11978243D01*
X214609926Y-11947001D01*
X214770076Y-11947001D01*
X214927143Y-11978243D01*
X214927143Y-11978243D01*
G37*
G36*
X186137421Y-11229143D02*
G01*
X186269557Y-11269227D01*
X186269559Y-11269228D01*
X186391339Y-11334320D01*
X186391341Y-11334321D01*
X186391340Y-11334321D01*
X186498080Y-11421920D01*
X186585679Y-11528660D01*
X186650773Y-11650443D01*
X186690857Y-11782579D01*
X186704391Y-11920000D01*
X186690857Y-12057421D01*
X186650773Y-12189557D01*
X186650772Y-12189559D01*
X186585680Y-12311339D01*
X186498080Y-12418080D01*
X186391339Y-12505680D01*
X186269559Y-12570772D01*
X186269557Y-12570773D01*
X186137421Y-12610857D01*
X186034432Y-12621000D01*
X185265568Y-12621000D01*
X185162579Y-12610857D01*
X185030443Y-12570773D01*
X185030441Y-12570772D01*
X184908661Y-12505680D01*
X184801920Y-12418080D01*
X184714320Y-12311339D01*
X184649228Y-12189559D01*
X184649227Y-12189557D01*
X184609143Y-12057421D01*
X184595609Y-11920000D01*
X184609143Y-11782579D01*
X184649227Y-11650443D01*
X184714321Y-11528660D01*
X184801920Y-11421920D01*
X184908660Y-11334321D01*
X184908659Y-11334321D01*
X184908661Y-11334320D01*
X185030441Y-11269228D01*
X185030443Y-11269227D01*
X185162579Y-11229143D01*
X185265568Y-11219000D01*
X186034432Y-11219000D01*
X186137421Y-11229143D01*
X186137421Y-11229143D01*
G37*
G36*
X193941000Y-11061000D02*
G01*
X192139000Y-11061000D01*
X192139000Y-9259000D01*
X193941000Y-9259000D01*
X193941000Y-11061000D01*
X193941000Y-11061000D01*
G37*
G36*
X199687143Y-9438243D02*
G01*
X199835102Y-9499530D01*
X199968256Y-9588500D01*
X200081502Y-9701746D01*
X200170472Y-9834900D01*
X200231759Y-9982859D01*
X200263001Y-10139926D01*
X200263001Y-10300076D01*
X200231759Y-10457143D01*
X200170472Y-10605102D01*
X200081502Y-10738256D01*
X199968256Y-10851502D01*
X199835102Y-10940472D01*
X199687143Y-11001759D01*
X199530076Y-11033001D01*
X199369926Y-11033001D01*
X199212859Y-11001759D01*
X199064900Y-10940472D01*
X198931746Y-10851502D01*
X198818500Y-10738256D01*
X198729530Y-10605102D01*
X198668243Y-10457143D01*
X198637001Y-10300076D01*
X198637001Y-10139926D01*
X198668243Y-9982859D01*
X198729530Y-9834900D01*
X198818500Y-9701746D01*
X198931746Y-9588500D01*
X199064900Y-9499530D01*
X199212859Y-9438243D01*
X199369926Y-9407001D01*
X199530076Y-9407001D01*
X199687143Y-9438243D01*
X199687143Y-9438243D01*
G37*
G36*
X214927143Y-9438243D02*
G01*
X215075102Y-9499530D01*
X215208256Y-9588500D01*
X215321502Y-9701746D01*
X215410472Y-9834900D01*
X215471759Y-9982859D01*
X215503001Y-10139926D01*
X215503001Y-10300076D01*
X215471759Y-10457143D01*
X215410472Y-10605102D01*
X215321502Y-10738256D01*
X215208256Y-10851502D01*
X215075102Y-10940472D01*
X214927143Y-11001759D01*
X214770076Y-11033001D01*
X214609926Y-11033001D01*
X214452859Y-11001759D01*
X214304900Y-10940472D01*
X214171746Y-10851502D01*
X214058500Y-10738256D01*
X213969530Y-10605102D01*
X213908243Y-10457143D01*
X213877001Y-10300076D01*
X213877001Y-10139926D01*
X213908243Y-9982859D01*
X213969530Y-9834900D01*
X214058500Y-9701746D01*
X214171746Y-9588500D01*
X214304900Y-9499530D01*
X214452859Y-9438243D01*
X214609926Y-9407001D01*
X214770076Y-9407001D01*
X214927143Y-9438243D01*
X214927143Y-9438243D01*
G37*
G36*
X186545781Y-9223295D02*
G01*
X186581816Y-9234227D01*
X186615024Y-9251977D01*
X186644134Y-9275866D01*
X186668023Y-9304976D01*
X186685773Y-9338184D01*
X186696705Y-9374219D01*
X186701000Y-9417831D01*
X186701000Y-10422169D01*
X186696705Y-10465781D01*
X186685773Y-10501816D01*
X186668023Y-10535024D01*
X186644134Y-10564134D01*
X186615024Y-10588023D01*
X186581816Y-10605773D01*
X186545781Y-10616705D01*
X186502169Y-10621000D01*
X184797831Y-10621000D01*
X184754219Y-10616705D01*
X184718184Y-10605773D01*
X184684976Y-10588023D01*
X184655866Y-10564134D01*
X184631977Y-10535024D01*
X184614227Y-10501816D01*
X184603295Y-10465781D01*
X184599000Y-10422169D01*
X184599000Y-9417831D01*
X184603295Y-9374219D01*
X184614227Y-9338184D01*
X184631977Y-9304976D01*
X184655866Y-9275866D01*
X184684976Y-9251977D01*
X184718184Y-9234227D01*
X184754219Y-9223295D01*
X184797831Y-9219000D01*
X186502169Y-9219000D01*
X186545781Y-9223295D01*
X186545781Y-9223295D01*
G37*
G36*
X199687143Y-6898243D02*
G01*
X199835102Y-6959530D01*
X199968256Y-7048500D01*
X200081502Y-7161746D01*
X200170472Y-7294900D01*
X200231759Y-7442859D01*
X200263001Y-7599926D01*
X200263001Y-7760076D01*
X200231759Y-7917143D01*
X200170472Y-8065102D01*
X200081502Y-8198256D01*
X199968256Y-8311502D01*
X199835102Y-8400472D01*
X199687143Y-8461759D01*
X199530076Y-8493001D01*
X199369926Y-8493001D01*
X199212859Y-8461759D01*
X199064900Y-8400472D01*
X198931746Y-8311502D01*
X198818500Y-8198256D01*
X198729530Y-8065102D01*
X198668243Y-7917143D01*
X198637001Y-7760076D01*
X198637001Y-7599926D01*
X198668243Y-7442859D01*
X198729530Y-7294900D01*
X198818500Y-7161746D01*
X198931746Y-7048500D01*
X199064900Y-6959530D01*
X199212859Y-6898243D01*
X199369926Y-6867001D01*
X199530076Y-6867001D01*
X199687143Y-6898243D01*
X199687143Y-6898243D01*
G37*
G36*
X214927143Y-6898243D02*
G01*
X215075102Y-6959530D01*
X215208256Y-7048500D01*
X215321502Y-7161746D01*
X215410472Y-7294900D01*
X215471759Y-7442859D01*
X215503001Y-7599926D01*
X215503001Y-7760076D01*
X215471759Y-7917143D01*
X215410472Y-8065102D01*
X215321502Y-8198256D01*
X215208256Y-8311502D01*
X215075102Y-8400472D01*
X214927143Y-8461759D01*
X214770076Y-8493001D01*
X214609926Y-8493001D01*
X214452859Y-8461759D01*
X214304900Y-8400472D01*
X214171746Y-8311502D01*
X214058500Y-8198256D01*
X213969530Y-8065102D01*
X213908243Y-7917143D01*
X213877001Y-7760076D01*
X213877001Y-7599926D01*
X213908243Y-7442859D01*
X213969530Y-7294900D01*
X214058500Y-7161746D01*
X214171746Y-7048500D01*
X214304900Y-6959530D01*
X214452859Y-6898243D01*
X214609926Y-6867001D01*
X214770076Y-6867001D01*
X214927143Y-6898243D01*
X214927143Y-6898243D01*
G37*
G36*
X199687143Y-4358243D02*
G01*
X199835102Y-4419530D01*
X199968256Y-4508500D01*
X200081502Y-4621746D01*
X200170472Y-4754900D01*
X200231759Y-4902859D01*
X200263001Y-5059926D01*
X200263001Y-5220076D01*
X200231759Y-5377143D01*
X200170472Y-5525102D01*
X200081502Y-5658256D01*
X199968256Y-5771502D01*
X199835102Y-5860472D01*
X199687143Y-5921759D01*
X199530076Y-5953001D01*
X199369926Y-5953001D01*
X199212859Y-5921759D01*
X199064900Y-5860472D01*
X198931746Y-5771502D01*
X198818500Y-5658256D01*
X198729530Y-5525102D01*
X198668243Y-5377143D01*
X198637001Y-5220076D01*
X198637001Y-5059926D01*
X198668243Y-4902859D01*
X198729530Y-4754900D01*
X198818500Y-4621746D01*
X198931746Y-4508500D01*
X199064900Y-4419530D01*
X199212859Y-4358243D01*
X199369926Y-4327001D01*
X199530076Y-4327001D01*
X199687143Y-4358243D01*
X199687143Y-4358243D01*
G37*
G36*
X214927143Y-4358243D02*
G01*
X215075102Y-4419530D01*
X215208256Y-4508500D01*
X215321502Y-4621746D01*
X215410472Y-4754900D01*
X215471759Y-4902859D01*
X215503001Y-5059926D01*
X215503001Y-5220076D01*
X215471759Y-5377143D01*
X215410472Y-5525102D01*
X215321502Y-5658256D01*
X215208256Y-5771502D01*
X215075102Y-5860472D01*
X214927143Y-5921759D01*
X214770076Y-5953001D01*
X214609926Y-5953001D01*
X214452859Y-5921759D01*
X214304900Y-5860472D01*
X214171746Y-5771502D01*
X214058500Y-5658256D01*
X213969530Y-5525102D01*
X213908243Y-5377143D01*
X213877001Y-5220076D01*
X213877001Y-5059926D01*
X213908243Y-4902859D01*
X213969530Y-4754900D01*
X214058500Y-4621746D01*
X214171746Y-4508500D01*
X214304900Y-4419530D01*
X214452859Y-4358243D01*
X214609926Y-4327001D01*
X214770076Y-4327001D01*
X214927143Y-4358243D01*
X214927143Y-4358243D01*
G37*
M02*
