M48
; DRILL file {KiCad (5.1.2-1)-1} date Friday, May 31, 2019 at 10:46:58 PM
; FORMAT={-:-/ absolute / inch / decimal}
; #@! TF.CreationDate,2019-05-31T22:46:58-07:00
; #@! TF.GenerationSoftware,Kicad,Pcbnew,(5.1.2-1)-1
; #@! TF.FileFunction,Plated,1,2,PTH
FMAT,2
INCH
T1C0.0276
T2C0.0300
T3C0.0315
T4C0.0394
%
G90
G05
T1
X7.3Y-1.9
X7.35Y-1.95
X7.4Y-1.9
T2
X7.8524Y-0.2024
X7.8524Y-0.3024
X7.8524Y-0.4024
X7.8524Y-0.5024
X7.8524Y-0.6024
X7.8524Y-0.7024
X7.8524Y-0.8024
X7.8524Y-0.9024
X7.8524Y-1.0024
X7.8524Y-1.1024
X7.8524Y-1.2024
X7.8524Y-1.3024
X7.8524Y-1.4024
X7.8524Y-1.5024
X7.8524Y-1.6024
X7.8524Y-1.7024
X7.8524Y-1.8024
X7.8524Y-1.9024
X7.8524Y-2.0024
X7.8524Y-2.1024
X8.4524Y-0.2024
X8.4524Y-0.3024
X8.4524Y-0.4024
X8.4524Y-0.5024
X8.4524Y-0.6024
X8.4524Y-0.7024
X8.4524Y-0.8024
X8.4524Y-0.9024
X8.4524Y-1.0024
X8.4524Y-1.1024
X8.4524Y-1.2024
X8.4524Y-1.3024
X8.4524Y-1.4024
X8.4524Y-1.5024
X8.4524Y-1.6024
X8.4524Y-1.7024
X8.4524Y-1.8024
X8.4524Y-1.9024
X8.4524Y-2.0024
X8.4524Y-2.1024
T3
X7.6Y-1.8
X7.6Y-2.1
T4
X7.3091Y-0.3906
X7.3091Y-0.8331
X7.3091Y-0.9118
X7.3091Y-0.9906
X7.3091Y-1.0693
X7.3091Y-1.3906
X7.3091Y-1.4693
X7.6Y-0.4
X7.6Y-0.5
X7.6Y-0.9
X7.6Y-1.0
X7.3091Y-0.4693
T0
M30
