G04 #@! TF.GenerationSoftware,KiCad,Pcbnew,(5.1.2-1)-1*
G04 #@! TF.CreationDate,2019-05-31T22:43:23-07:00*
G04 #@! TF.ProjectId,NeatoLidarInterface,4e656174-6f4c-4696-9461-72496e746572,rev?*
G04 #@! TF.SameCoordinates,Original*
G04 #@! TF.FileFunction,Legend,Top*
G04 #@! TF.FilePolarity,Positive*
%FSLAX46Y46*%
G04 Gerber Fmt 4.6, Leading zero omitted, Abs format (unit mm)*
G04 Created by KiCad (PCBNEW (5.1.2-1)-1) date 2019-05-31 22:43:23*
%MOMM*%
%LPD*%
G04 APERTURE LIST*
%ADD10C,0.150000*%
%ADD11C,0.120000*%
G04 APERTURE END LIST*
D10*
X181602142Y-22107380D02*
X181268809Y-21631190D01*
X181030714Y-22107380D02*
X181030714Y-21107380D01*
X181411666Y-21107380D01*
X181506904Y-21155000D01*
X181554523Y-21202619D01*
X181602142Y-21297857D01*
X181602142Y-21440714D01*
X181554523Y-21535952D01*
X181506904Y-21583571D01*
X181411666Y-21631190D01*
X181030714Y-21631190D01*
X182030714Y-21583571D02*
X182364047Y-21583571D01*
X182506904Y-22107380D02*
X182030714Y-22107380D01*
X182030714Y-21107380D01*
X182506904Y-21107380D01*
X182935476Y-22107380D02*
X182935476Y-21107380D01*
X183173571Y-21107380D01*
X183316428Y-21155000D01*
X183411666Y-21250238D01*
X183459285Y-21345476D01*
X183506904Y-21535952D01*
X183506904Y-21678809D01*
X183459285Y-21869285D01*
X183411666Y-21964523D01*
X183316428Y-22059761D01*
X183173571Y-22107380D01*
X182935476Y-22107380D01*
X181292619Y-23233571D02*
X181435476Y-23281190D01*
X181483095Y-23328809D01*
X181530714Y-23424047D01*
X181530714Y-23566904D01*
X181483095Y-23662142D01*
X181435476Y-23709761D01*
X181340238Y-23757380D01*
X180959285Y-23757380D01*
X180959285Y-22757380D01*
X181292619Y-22757380D01*
X181387857Y-22805000D01*
X181435476Y-22852619D01*
X181483095Y-22947857D01*
X181483095Y-23043095D01*
X181435476Y-23138333D01*
X181387857Y-23185952D01*
X181292619Y-23233571D01*
X180959285Y-23233571D01*
X182530714Y-23757380D02*
X182197380Y-23281190D01*
X181959285Y-23757380D02*
X181959285Y-22757380D01*
X182340238Y-22757380D01*
X182435476Y-22805000D01*
X182483095Y-22852619D01*
X182530714Y-22947857D01*
X182530714Y-23090714D01*
X182483095Y-23185952D01*
X182435476Y-23233571D01*
X182340238Y-23281190D01*
X181959285Y-23281190D01*
X182959285Y-23757380D02*
X182959285Y-22757380D01*
X183530714Y-23757380D01*
X183530714Y-22757380D01*
X181149761Y-24407380D02*
X181340238Y-24407380D01*
X181435476Y-24455000D01*
X181530714Y-24550238D01*
X181578333Y-24740714D01*
X181578333Y-25074047D01*
X181530714Y-25264523D01*
X181435476Y-25359761D01*
X181340238Y-25407380D01*
X181149761Y-25407380D01*
X181054523Y-25359761D01*
X180959285Y-25264523D01*
X180911666Y-25074047D01*
X180911666Y-24740714D01*
X180959285Y-24550238D01*
X181054523Y-24455000D01*
X181149761Y-24407380D01*
X182578333Y-25407380D02*
X182245000Y-24931190D01*
X182006904Y-25407380D02*
X182006904Y-24407380D01*
X182387857Y-24407380D01*
X182483095Y-24455000D01*
X182530714Y-24502619D01*
X182578333Y-24597857D01*
X182578333Y-24740714D01*
X182530714Y-24835952D01*
X182483095Y-24883571D01*
X182387857Y-24931190D01*
X182006904Y-24931190D01*
X183530714Y-24455000D02*
X183435476Y-24407380D01*
X183292619Y-24407380D01*
X183149761Y-24455000D01*
X183054523Y-24550238D01*
X183006904Y-24645476D01*
X182959285Y-24835952D01*
X182959285Y-24978809D01*
X183006904Y-25169285D01*
X183054523Y-25264523D01*
X183149761Y-25359761D01*
X183292619Y-25407380D01*
X183387857Y-25407380D01*
X183530714Y-25359761D01*
X183578333Y-25312142D01*
X183578333Y-24978809D01*
X183387857Y-24978809D01*
X181411666Y-26533571D02*
X181554523Y-26581190D01*
X181602142Y-26628809D01*
X181649761Y-26724047D01*
X181649761Y-26866904D01*
X181602142Y-26962142D01*
X181554523Y-27009761D01*
X181459285Y-27057380D01*
X181078333Y-27057380D01*
X181078333Y-26057380D01*
X181411666Y-26057380D01*
X181506904Y-26105000D01*
X181554523Y-26152619D01*
X181602142Y-26247857D01*
X181602142Y-26343095D01*
X181554523Y-26438333D01*
X181506904Y-26485952D01*
X181411666Y-26533571D01*
X181078333Y-26533571D01*
X182554523Y-27057380D02*
X182078333Y-27057380D01*
X182078333Y-26057380D01*
X182887857Y-27057380D02*
X182887857Y-26057380D01*
X183459285Y-27057380D02*
X183030714Y-26485952D01*
X183459285Y-26057380D02*
X182887857Y-26628809D01*
X181602142Y-37917380D02*
X181268809Y-37441190D01*
X181030714Y-37917380D02*
X181030714Y-36917380D01*
X181411666Y-36917380D01*
X181506904Y-36965000D01*
X181554523Y-37012619D01*
X181602142Y-37107857D01*
X181602142Y-37250714D01*
X181554523Y-37345952D01*
X181506904Y-37393571D01*
X181411666Y-37441190D01*
X181030714Y-37441190D01*
X182030714Y-37393571D02*
X182364047Y-37393571D01*
X182506904Y-37917380D02*
X182030714Y-37917380D01*
X182030714Y-36917380D01*
X182506904Y-36917380D01*
X182935476Y-37917380D02*
X182935476Y-36917380D01*
X183173571Y-36917380D01*
X183316428Y-36965000D01*
X183411666Y-37060238D01*
X183459285Y-37155476D01*
X183506904Y-37345952D01*
X183506904Y-37488809D01*
X183459285Y-37679285D01*
X183411666Y-37774523D01*
X183316428Y-37869761D01*
X183173571Y-37917380D01*
X182935476Y-37917380D01*
X181411666Y-34853571D02*
X181554523Y-34901190D01*
X181602142Y-34948809D01*
X181649761Y-35044047D01*
X181649761Y-35186904D01*
X181602142Y-35282142D01*
X181554523Y-35329761D01*
X181459285Y-35377380D01*
X181078333Y-35377380D01*
X181078333Y-34377380D01*
X181411666Y-34377380D01*
X181506904Y-34425000D01*
X181554523Y-34472619D01*
X181602142Y-34567857D01*
X181602142Y-34663095D01*
X181554523Y-34758333D01*
X181506904Y-34805952D01*
X181411666Y-34853571D01*
X181078333Y-34853571D01*
X182554523Y-35377380D02*
X182078333Y-35377380D01*
X182078333Y-34377380D01*
X182887857Y-35377380D02*
X182887857Y-34377380D01*
X183459285Y-35377380D02*
X183030714Y-34805952D01*
X183459285Y-34377380D02*
X182887857Y-34948809D01*
X181229047Y-28011428D02*
X181990952Y-28011428D01*
X181229047Y-19756428D02*
X181990952Y-19756428D01*
X181610000Y-20137380D02*
X181610000Y-19375476D01*
X181229047Y-12136428D02*
X181990952Y-12136428D01*
X181610000Y-12517380D02*
X181610000Y-11755476D01*
X181229047Y-9596428D02*
X181990952Y-9596428D01*
X177347619Y-34996666D02*
X178347619Y-34996666D01*
X177633333Y-35330000D01*
X178347619Y-35663333D01*
X177347619Y-35663333D01*
X177347619Y-36282380D02*
X177395238Y-36187142D01*
X177442857Y-36139523D01*
X177538095Y-36091904D01*
X177823809Y-36091904D01*
X177919047Y-36139523D01*
X177966666Y-36187142D01*
X178014285Y-36282380D01*
X178014285Y-36425238D01*
X177966666Y-36520476D01*
X177919047Y-36568095D01*
X177823809Y-36615714D01*
X177538095Y-36615714D01*
X177442857Y-36568095D01*
X177395238Y-36520476D01*
X177347619Y-36425238D01*
X177347619Y-36282380D01*
X178014285Y-36901428D02*
X178014285Y-37282380D01*
X178347619Y-37044285D02*
X177490476Y-37044285D01*
X177395238Y-37091904D01*
X177347619Y-37187142D01*
X177347619Y-37282380D01*
X177347619Y-37758571D02*
X177395238Y-37663333D01*
X177442857Y-37615714D01*
X177538095Y-37568095D01*
X177823809Y-37568095D01*
X177919047Y-37615714D01*
X177966666Y-37663333D01*
X178014285Y-37758571D01*
X178014285Y-37901428D01*
X177966666Y-37996666D01*
X177919047Y-38044285D01*
X177823809Y-38091904D01*
X177538095Y-38091904D01*
X177442857Y-38044285D01*
X177395238Y-37996666D01*
X177347619Y-37901428D01*
X177347619Y-37758571D01*
X177347619Y-38520476D02*
X178014285Y-38520476D01*
X177823809Y-38520476D02*
X177919047Y-38568095D01*
X177966666Y-38615714D01*
X178014285Y-38710952D01*
X178014285Y-38806190D01*
X177347619Y-22772857D02*
X177347619Y-22296666D01*
X178347619Y-22296666D01*
X177347619Y-23106190D02*
X178347619Y-23106190D01*
X177347619Y-23582380D02*
X178347619Y-23582380D01*
X178347619Y-23820476D01*
X178300000Y-23963333D01*
X178204761Y-24058571D01*
X178109523Y-24106190D01*
X177919047Y-24153809D01*
X177776190Y-24153809D01*
X177585714Y-24106190D01*
X177490476Y-24058571D01*
X177395238Y-23963333D01*
X177347619Y-23820476D01*
X177347619Y-23582380D01*
X177633333Y-24534761D02*
X177633333Y-25010952D01*
X177347619Y-24439523D02*
X178347619Y-24772857D01*
X177347619Y-25106190D01*
X177347619Y-26010952D02*
X177823809Y-25677619D01*
X177347619Y-25439523D02*
X178347619Y-25439523D01*
X178347619Y-25820476D01*
X178300000Y-25915714D01*
X178252380Y-25963333D01*
X178157142Y-26010952D01*
X178014285Y-26010952D01*
X177919047Y-25963333D01*
X177871428Y-25915714D01*
X177823809Y-25820476D01*
X177823809Y-25439523D01*
X177871428Y-9239523D02*
X177871428Y-9572857D01*
X177347619Y-9715714D02*
X177347619Y-9239523D01*
X178347619Y-9239523D01*
X178347619Y-9715714D01*
X177347619Y-10049047D02*
X178014285Y-10572857D01*
X178014285Y-10049047D02*
X177347619Y-10572857D01*
X178014285Y-10810952D02*
X178014285Y-11191904D01*
X178347619Y-10953809D02*
X177490476Y-10953809D01*
X177395238Y-11001428D01*
X177347619Y-11096666D01*
X177347619Y-11191904D01*
X178347619Y-12763333D02*
X178347619Y-12287142D01*
X177871428Y-12239523D01*
X177919047Y-12287142D01*
X177966666Y-12382380D01*
X177966666Y-12620476D01*
X177919047Y-12715714D01*
X177871428Y-12763333D01*
X177776190Y-12810952D01*
X177538095Y-12810952D01*
X177442857Y-12763333D01*
X177395238Y-12715714D01*
X177347619Y-12620476D01*
X177347619Y-12382380D01*
X177395238Y-12287142D01*
X177442857Y-12239523D01*
X178347619Y-13096666D02*
X177347619Y-13430000D01*
X178347619Y-13763333D01*
D11*
X179900000Y-7070000D02*
X181400000Y-7070000D01*
X179900000Y-8570000D02*
X179900000Y-7070000D01*
X188460000Y-8310000D02*
X188460000Y-13530000D01*
X180140000Y-14530000D02*
X187460000Y-14530000D01*
X180140000Y-7310000D02*
X180140000Y-14530000D01*
X187460000Y-7310000D02*
X180140000Y-7310000D01*
X187460000Y-14530000D02*
G75*
G03X188460000Y-13530000I0J1000000D01*
G01*
X188460000Y-8310000D02*
G75*
G03X187460000Y-7310000I-1000000J0D01*
G01*
X181640000Y-18550000D02*
G75*
G03X180640000Y-19550000I0J-1000000D01*
G01*
X180640000Y-28770000D02*
G75*
G03X181640000Y-29770000I1000000J0D01*
G01*
X188760000Y-19550000D02*
G75*
G03X187760000Y-18550000I-1000000J0D01*
G01*
X187760000Y-29770000D02*
G75*
G03X188760000Y-28770000I0J1000000D01*
G01*
X181640000Y-18550000D02*
X187760000Y-18550000D01*
X181640000Y-29770000D02*
X187760000Y-29770000D01*
X180640000Y-19550000D02*
X180640000Y-20550000D01*
X180640000Y-20550000D02*
X180140000Y-20550000D01*
X180140000Y-20550000D02*
X180140000Y-27770000D01*
X180140000Y-27770000D02*
X180640000Y-27770000D01*
X180640000Y-27770000D02*
X180640000Y-28770000D01*
X188760000Y-19550000D02*
X188760000Y-28770000D01*
X179900000Y-19810000D02*
X179900000Y-18310000D01*
X179900000Y-18310000D02*
X181400000Y-18310000D01*
X188460000Y-33710000D02*
G75*
G03X187460000Y-32710000I-1000000J0D01*
G01*
X187460000Y-39930000D02*
G75*
G03X188460000Y-38930000I0J1000000D01*
G01*
X187460000Y-32710000D02*
X180140000Y-32710000D01*
X180140000Y-32710000D02*
X180140000Y-39930000D01*
X180140000Y-39930000D02*
X187460000Y-39930000D01*
X188460000Y-33710000D02*
X188460000Y-38930000D01*
X179900000Y-33970000D02*
X179900000Y-32470000D01*
X179900000Y-32470000D02*
X181400000Y-32470000D01*
X191710000Y-21530000D02*
X193040000Y-21530000D01*
X191710000Y-22860000D02*
X191710000Y-21530000D01*
X191710000Y-24130000D02*
X194370000Y-24130000D01*
X194370000Y-24130000D02*
X194370000Y-26730000D01*
X191710000Y-24130000D02*
X191710000Y-26730000D01*
X191710000Y-26730000D02*
X194370000Y-26730000D01*
X191710000Y-14030000D02*
X194370000Y-14030000D01*
X191710000Y-11430000D02*
X191710000Y-14030000D01*
X194370000Y-11430000D02*
X194370000Y-14030000D01*
X191710000Y-11430000D02*
X194370000Y-11430000D01*
X191710000Y-10160000D02*
X191710000Y-8830000D01*
X191710000Y-8830000D02*
X193040000Y-8830000D01*
X185107669Y-45687719D02*
X184195501Y-44775552D01*
X184195501Y-44775552D02*
X183205552Y-45765501D01*
X183205552Y-45765501D02*
X184117719Y-46677669D01*
X184117850Y-46677456D02*
G75*
G03X185107669Y-45687719I2572150J-1582544D01*
G01*
X192000000Y-52800000D02*
X191670000Y-52800000D01*
X191670000Y-52800000D02*
X191670000Y-46260000D01*
X191670000Y-46260000D02*
X192000000Y-46260000D01*
X194080000Y-52800000D02*
X194410000Y-52800000D01*
X194410000Y-52800000D02*
X194410000Y-46260000D01*
X194410000Y-46260000D02*
X194080000Y-46260000D01*
X217230001Y-2600001D02*
X217230001Y-55940001D01*
X217230001Y-55940001D02*
X196910001Y-55940001D01*
X196910001Y-55940001D02*
X196910001Y-2600001D01*
X196910001Y-2600001D02*
X217230001Y-2600001D01*
D10*
X183966666Y-5672380D02*
X183966666Y-6386666D01*
X183919047Y-6529523D01*
X183823809Y-6624761D01*
X183680952Y-6672380D01*
X183585714Y-6672380D01*
X184966666Y-6672380D02*
X184395238Y-6672380D01*
X184680952Y-6672380D02*
X184680952Y-5672380D01*
X184585714Y-5815238D01*
X184490476Y-5910476D01*
X184395238Y-5958095D01*
X184116666Y-16912380D02*
X184116666Y-17626666D01*
X184069047Y-17769523D01*
X183973809Y-17864761D01*
X183830952Y-17912380D01*
X183735714Y-17912380D01*
X184545238Y-17007619D02*
X184592857Y-16960000D01*
X184688095Y-16912380D01*
X184926190Y-16912380D01*
X185021428Y-16960000D01*
X185069047Y-17007619D01*
X185116666Y-17102857D01*
X185116666Y-17198095D01*
X185069047Y-17340952D01*
X184497619Y-17912380D01*
X185116666Y-17912380D01*
X183966666Y-31072380D02*
X183966666Y-31786666D01*
X183919047Y-31929523D01*
X183823809Y-32024761D01*
X183680952Y-32072380D01*
X183585714Y-32072380D01*
X184347619Y-31072380D02*
X184966666Y-31072380D01*
X184633333Y-31453333D01*
X184776190Y-31453333D01*
X184871428Y-31500952D01*
X184919047Y-31548571D01*
X184966666Y-31643809D01*
X184966666Y-31881904D01*
X184919047Y-31977142D01*
X184871428Y-32024761D01*
X184776190Y-32072380D01*
X184490476Y-32072380D01*
X184395238Y-32024761D01*
X184347619Y-31977142D01*
X192706666Y-19982380D02*
X192706666Y-20696666D01*
X192659047Y-20839523D01*
X192563809Y-20934761D01*
X192420952Y-20982380D01*
X192325714Y-20982380D01*
X193611428Y-20315714D02*
X193611428Y-20982380D01*
X193373333Y-19934761D02*
X193135238Y-20649047D01*
X193754285Y-20649047D01*
X192706666Y-7282380D02*
X192706666Y-7996666D01*
X192659047Y-8139523D01*
X192563809Y-8234761D01*
X192420952Y-8282380D01*
X192325714Y-8282380D01*
X193659047Y-7282380D02*
X193182857Y-7282380D01*
X193135238Y-7758571D01*
X193182857Y-7710952D01*
X193278095Y-7663333D01*
X193516190Y-7663333D01*
X193611428Y-7710952D01*
X193659047Y-7758571D01*
X193706666Y-7853809D01*
X193706666Y-8091904D01*
X193659047Y-8187142D01*
X193611428Y-8234761D01*
X193516190Y-8282380D01*
X193278095Y-8282380D01*
X193182857Y-8234761D01*
X193135238Y-8187142D01*
X186594761Y-44787619D02*
X186499523Y-44740000D01*
X186404285Y-44644761D01*
X186261428Y-44501904D01*
X186166190Y-44454285D01*
X186070952Y-44454285D01*
X186118571Y-44692380D02*
X186023333Y-44644761D01*
X185928095Y-44549523D01*
X185880476Y-44359047D01*
X185880476Y-44025714D01*
X185928095Y-43835238D01*
X186023333Y-43740000D01*
X186118571Y-43692380D01*
X186309047Y-43692380D01*
X186404285Y-43740000D01*
X186499523Y-43835238D01*
X186547142Y-44025714D01*
X186547142Y-44359047D01*
X186499523Y-44549523D01*
X186404285Y-44644761D01*
X186309047Y-44692380D01*
X186118571Y-44692380D01*
X187499523Y-44692380D02*
X186928095Y-44692380D01*
X187213809Y-44692380D02*
X187213809Y-43692380D01*
X187118571Y-43835238D01*
X187023333Y-43930476D01*
X186928095Y-43978095D01*
X191122380Y-49696666D02*
X190646190Y-50030000D01*
X191122380Y-50268095D02*
X190122380Y-50268095D01*
X190122380Y-49887142D01*
X190170000Y-49791904D01*
X190217619Y-49744285D01*
X190312857Y-49696666D01*
X190455714Y-49696666D01*
X190550952Y-49744285D01*
X190598571Y-49791904D01*
X190646190Y-49887142D01*
X190646190Y-50268095D01*
X191122380Y-48744285D02*
X191122380Y-49315714D01*
X191122380Y-49030000D02*
X190122380Y-49030000D01*
X190265238Y-49125238D01*
X190360476Y-49220476D01*
X190408095Y-49315714D01*
X205038096Y-27452381D02*
X205038096Y-28261905D01*
X205085715Y-28357143D01*
X205133334Y-28404762D01*
X205228572Y-28452381D01*
X205419048Y-28452381D01*
X205514286Y-28404762D01*
X205561905Y-28357143D01*
X205609524Y-28261905D01*
X205609524Y-27452381D01*
X206609524Y-28452381D02*
X206038096Y-28452381D01*
X206323810Y-28452381D02*
X206323810Y-27452381D01*
X206228572Y-27595239D01*
X206133334Y-27690477D01*
X206038096Y-27738096D01*
M02*
